<svg version="1.1" xmlns="http://www.w3.org/2000/svg" xmlns:xlink="http://www.w3.org/1999/xlink" width="300" height="300" viewBox="0,0,300,300"><g fill="none" fill-rule="nonzero" stroke="none" stroke-width="none" stroke-linecap="none" stroke-linejoin="miter" stroke-miterlimit="10" stroke-dasharray="" stroke-dashoffset="0" font-family="none" font-weight="none" font-size="none" text-anchor="none" style="mix-blend-mode: normal"><path d="M218.45708,96.58873c0,-4.41828 3.58172,-8 8,-8c4.41828,0 8,3.58172 8,8c0,4.41828 -3.58172,8 -8,8c-4.41828,0 -8,-3.58172 -8,-8z" fill="#000000" stroke="none" stroke-width="1" stroke-linecap="butt"></path><path d="M206.45708,96.58873c0,-11.04569 8.95431,-20 20,-20c11.04569,0 20,8.95431 20,20c0,11.04569 -8.95431,20 -20,20c-11.04569,0 -20,-8.95431 -20,-20z" fill="none" stroke="#000000" stroke-width="2" stroke-linecap="butt"></path><path d="M134.08394,87.09843c0,-4.41828 3.58172,-8 8,-8c4.41828,0 8,3.58172 8,8c0,4.41828 -3.58172,8 -8,8c-4.41828,0 -8,-3.58172 -8,-8z" fill="#000000" stroke="none" stroke-width="1" stroke-linecap="butt"></path><path d="M122.08394,87.09843c0,-11.04569 8.95431,-20 20,-20c11.04569,0 20,8.95431 20,20c0,11.04569 -8.95431,20 -20,20c-11.04569,0 -20,-8.95431 -20,-20z" fill="none" stroke="#000000" stroke-width="2" stroke-linecap="butt"></path><path d="M49.31837,106.6201c0,-4.41828 3.58172,-8 8,-8c4.41828,0 8,3.58172 8,8c0,4.41828 -3.58172,8 -8,8c-4.41828,0 -8,-3.58172 -8,-8z" fill="#000000" stroke="none" stroke-width="1" stroke-linecap="butt"></path><path d="M37.31837,106.6201c0,-11.04569 8.95431,-20 20,-20c11.04569,0 20,8.95431 20,20c0,11.04569 -8.95431,20 -20,20c-11.04569,0 -20,-8.95431 -20,-20z" fill="none" stroke="#000000" stroke-width="2" stroke-linecap="butt"></path><path d="M67.93684,213.06462c0,-4.41828 3.58172,-8 8,-8c4.41828,0 8,3.58172 8,8c0,4.41828 -3.58172,8 -8,8c-4.41828,0 -8,-3.58172 -8,-8z" fill="#000000" stroke="none" stroke-width="1" stroke-linecap="butt"></path><path d="M55.93684,213.06462c0,-11.04569 8.95431,-20 20,-20c11.04569,0 20,8.95431 20,20c0,11.04569 -8.95431,20 -20,20c-11.04569,0 -20,-8.95431 -20,-20z" fill="none" stroke="#000000" stroke-width="2" stroke-linecap="butt"></path><path d="M195.04204,93.05516l-3.59051,-0.40386" fill="none" stroke="#000000" stroke-width="3" stroke-linecap="round"></path><path d="M180.68,91.43972l-3.59051,-0.40386" fill="none" stroke="#000000" stroke-width="3" stroke-linecap="round"></path><path d="M177.08949,91.03586l-3.59051,-0.40386" fill="none" stroke="#000000" stroke-width="3" stroke-linecap="round"></path><path d="M111.02393,94.25161l-3.77426,0.86922" fill="none" stroke="#000000" stroke-width="3" stroke-linecap="round"></path><path d="M107.24967,95.12082l-3.77426,0.86922" fill="none" stroke="#000000" stroke-width="3" stroke-linecap="round"></path><path d="M99.70115,96.85926l-3.77426,0.86922" fill="none" stroke="#000000" stroke-width="3" stroke-linecap="round"></path><path d="M95.92689,97.72848l-3.77426,0.86922" fill="none" stroke="#000000" stroke-width="3" stroke-linecap="round"></path><path d="M63.26391,140.61161l1.12123,6.41025" fill="none" stroke="#000000" stroke-width="3" stroke-linecap="round"></path><path d="M64.38514,147.02186l1.12123,6.41025" fill="none" stroke="#000000" stroke-width="3" stroke-linecap="round"></path><path d="M69.9913,179.07311l1.12123,6.41025" fill="none" stroke="#000000" stroke-width="3" stroke-linecap="round"></path></g></svg>