<svg version="1.1" xmlns="http://www.w3.org/2000/svg" xmlns:xlink="http://www.w3.org/1999/xlink" width="300" height="300" viewBox="0,0,300,300"><g fill="none" fill-rule="nonzero" stroke="none" stroke-width="none" stroke-linecap="none" stroke-linejoin="miter" stroke-miterlimit="10" stroke-dasharray="" stroke-dashoffset="0" font-family="none" font-weight="none" font-size="none" text-anchor="none" style="mix-blend-mode: normal"><path d="M223.62285,116.94384c0,-4.41828 3.58172,-8 8,-8c4.41828,0 8,3.58172 8,8c0,4.41828 -3.58172,8 -8,8c-4.41828,0 -8,-3.58172 -8,-8z" fill="#000000" stroke="none" stroke-width="1" stroke-linecap="butt"></path><path d="M211.62285,116.94384c0,-11.04569 8.95431,-20 20,-20c11.04569,0 20,8.95431 20,20c0,11.04569 -8.95431,20 -20,20c-11.04569,0 -20,-8.95431 -20,-20z" fill="none" stroke="#000000" stroke-width="2" stroke-linecap="butt"></path><path d="M208.29052,261.70195c0,-4.41828 3.58172,-8 8,-8c4.41828,0 8,3.58172 8,8c0,4.41828 -3.58172,8 -8,8c-4.41828,0 -8,-3.58172 -8,-8z" fill="#000000" stroke="none" stroke-width="1" stroke-linecap="butt"></path><path d="M196.29052,261.70195c0,-11.04569 8.95431,-20 20,-20c11.04569,0 20,8.95431 20,20c0,11.04569 -8.95431,20 -20,20c-11.04569,0 -20,-8.95431 -20,-20z" fill="none" stroke="#000000" stroke-width="2" stroke-linecap="butt"></path><path d="M131.17114,184.14042c0,-4.41828 3.58172,-8 8,-8c4.41828,0 8,3.58172 8,8c0,4.41828 -3.58172,8 -8,8c-4.41828,0 -8,-3.58172 -8,-8z" fill="#000000" stroke="none" stroke-width="1" stroke-linecap="butt"></path><path d="M119.17114,184.14042c0,-11.04569 8.95431,-20 20,-20c11.04569,0 20,8.95431 20,20c0,11.04569 -8.95431,20 -20,20c-11.04569,0 -20,-8.95431 -20,-20z" fill="none" stroke="#000000" stroke-width="2" stroke-linecap="butt"></path><path d="M62.53403,279.36409c0,-4.41828 3.58172,-8 8,-8c4.41828,0 8,3.58172 8,8c0,4.41828 -3.58172,8 -8,8c-4.41828,0 -8,-3.58172 -8,-8z" fill="#000000" stroke="none" stroke-width="1" stroke-linecap="butt"></path><path d="M50.53403,279.36409c0,-11.04569 8.95431,-20 20,-20c11.04569,0 20,8.95431 20,20c0,11.04569 -8.95431,20 -20,20c-11.04569,0 -20,-8.95431 -20,-20z" fill="none" stroke="#000000" stroke-width="2" stroke-linecap="butt"></path><path d="M227.49443,155.92179l-1.17925,11.1337" fill="none" stroke="#000000" stroke-width="3" stroke-linecap="round"></path><path d="M222.77744,200.45659l-1.17925,11.1337" fill="none" stroke="#000000" stroke-width="3" stroke-linecap="round"></path><path d="M221.59819,211.59029l-1.17925,11.1337" fill="none" stroke="#000000" stroke-width="3" stroke-linecap="round"></path><path d="M191.84386,237.11513l-4.70434,-4.73132" fill="none" stroke="#000000" stroke-width="3" stroke-linecap="round"></path><path d="M187.13952,232.38381l-4.70434,-4.73132" fill="none" stroke="#000000" stroke-width="3" stroke-linecap="round"></path><path d="M177.73083,222.92118l-4.70434,-4.73132" fill="none" stroke="#000000" stroke-width="3" stroke-linecap="round"></path><path d="M173.02649,218.18987l-4.70434,-4.73132" fill="none" stroke="#000000" stroke-width="3" stroke-linecap="round"></path><path d="M118.31214,213.07914l-4.48652,6.22437" fill="none" stroke="#000000" stroke-width="3" stroke-linecap="round"></path><path d="M113.82563,219.30351l-4.48652,6.22437" fill="none" stroke="#000000" stroke-width="3" stroke-linecap="round"></path><path d="M91.39303,250.42536l-4.48652,6.22437" fill="none" stroke="#000000" stroke-width="3" stroke-linecap="round"></path></g></svg>