<svg version="1.1" xmlns="http://www.w3.org/2000/svg" xmlns:xlink="http://www.w3.org/1999/xlink" width="300" height="300" viewBox="0,0,300,300"><g fill="none" fill-rule="nonzero" stroke="none" stroke-width="1" stroke-linecap="butt" stroke-linejoin="miter" stroke-miterlimit="10" stroke-dasharray="" stroke-dashoffset="0" font-family="none" font-weight="none" font-size="none" text-anchor="none" style="mix-blend-mode: normal"><path d="M96,100c0,-2.20914 1.79086,-4 4,-4c2.20914,0 4,1.79086 4,4c0,2.20914 -1.79086,4 -4,4c-2.20914,0 -4,-1.79086 -4,-4z" fill="#000000" stroke="none"></path><path d="M90,100c0,-5.52285 4.47715,-10 10,-10c5.52285,0 10,4.47715 10,10c0,5.52285 -4.47715,10 -10,10c-5.52285,0 -10,-4.47715 -10,-10z" fill="none" stroke="#000000"></path><path d="M156,60c0,-2.20914 1.79086,-4 4,-4c2.20914,0 4,1.79086 4,4c0,2.20914 -1.79086,4 -4,4c-2.20914,0 -4,-1.79086 -4,-4z" fill="#000000" stroke="none"></path><path d="M150,60c0,-5.52285 4.47715,-10 10,-10c5.52285,0 10,4.47715 10,10c0,5.52285 -4.47715,10 -10,10c-5.52285,0 -10,-4.47715 -10,-10z" fill="none" stroke="#000000"></path><path d="M216,60c0,-2.20914 1.79086,-4 4,-4c2.20914,0 4,1.79086 4,4c0,2.20914 -1.79086,4 -4,4c-2.20914,0 -4,-1.79086 -4,-4z" fill="#000000" stroke="none"></path><path d="M210,60c0,-5.52285 4.47715,-10 10,-10c5.52285,0 10,4.47715 10,10c0,5.52285 -4.47715,10 -10,10c-5.52285,0 -10,-4.47715 -10,-10z" fill="none" stroke="#000000"></path><path d="M221,180c0,-2.20914 1.79086,-4 4,-4c2.20914,0 4,1.79086 4,4c0,2.20914 -1.79086,4 -4,4c-2.20914,0 -4,-1.79086 -4,-4z" fill="#000000" stroke="none"></path><path d="M215,180c0,-5.52285 4.47715,-10 10,-10c5.52285,0 10,4.47715 10,10c0,5.52285 -4.47715,10 -10,10c-5.52285,0 -10,-4.47715 -10,-10z" fill="none" stroke="#000000"></path><path d="M114.36441,90.42372l5.21186,-3.47457" fill="none" stroke="#000000"></path><path d="M135.21186,76.52543l5.21186,-3.47457" fill="none" stroke="#000000"></path><path d="M140.42372,73.05085l5.21186,-3.47457" fill="none" stroke="#000000"></path><path d="M175.75,60h4.75" fill="none" stroke="#000000"></path><path d="M180.5,60h4.75" fill="none" stroke="#000000"></path><path d="M190,60h4.75" fill="none" stroke="#000000"></path><path d="M194.75,60h4.75" fill="none" stroke="#000000"></path><path d="M220.96845,83.24285l0.51052,12.25238" fill="none" stroke="#000000"></path><path d="M221.47897,95.49523l0.51052,12.25238" fill="none" stroke="#000000"></path><path d="M224.03155,156.75715l0.51052,12.25238" fill="none" stroke="#000000"></path></g></svg>