<svg version="1.1" xmlns="http://www.w3.org/2000/svg" xmlns:xlink="http://www.w3.org/1999/xlink" width="300" height="300" viewBox="0,0,300,300"><g fill="none" fill-rule="nonzero" stroke="none" stroke-width="none" stroke-linecap="none" stroke-linejoin="miter" stroke-miterlimit="10" stroke-dasharray="" stroke-dashoffset="0" font-family="none" font-weight="none" font-size="none" text-anchor="none" style="mix-blend-mode: normal"><path d="M238.42609,82.33955c0,-4.41828 3.58172,-8 8,-8c4.41828,0 8,3.58172 8,8c0,4.41828 -3.58172,8 -8,8c-4.41828,0 -8,-3.58172 -8,-8z" fill="#000000" stroke="none" stroke-width="1" stroke-linecap="butt"></path><path d="M226.42609,82.33955c0,-11.04569 8.95431,-20 20,-20c11.04569,0 20,8.95431 20,20c0,11.04569 -8.95431,20 -20,20c-11.04569,0 -20,-8.95431 -20,-20z" fill="none" stroke="#000000" stroke-width="2" stroke-linecap="butt"></path><path d="M132.0664,111.80296c0,-4.41828 3.58172,-8 8,-8c4.41828,0 8,3.58172 8,8c0,4.41828 -3.58172,8 -8,8c-4.41828,0 -8,-3.58172 -8,-8z" fill="#000000" stroke="none" stroke-width="1" stroke-linecap="butt"></path><path d="M120.0664,111.80296c0,-11.04569 8.95431,-20 20,-20c11.04569,0 20,8.95431 20,20c0,11.04569 -8.95431,20 -20,20c-11.04569,0 -20,-8.95431 -20,-20z" fill="none" stroke="#000000" stroke-width="2" stroke-linecap="butt"></path><path d="M215.29346,228.84559c0,-4.41828 3.58172,-8 8,-8c4.41828,0 8,3.58172 8,8c0,4.41828 -3.58172,8 -8,8c-4.41828,0 -8,-3.58172 -8,-8z" fill="#000000" stroke="none" stroke-width="1" stroke-linecap="butt"></path><path d="M203.29346,228.84559c0,-11.04569 8.95431,-20 20,-20c11.04569,0 20,8.95431 20,20c0,11.04569 -8.95431,20 -20,20c-11.04569,0 -20,-8.95431 -20,-20z" fill="none" stroke="#000000" stroke-width="2" stroke-linecap="butt"></path><path d="M76.83596,189.50774c0,-4.41828 3.58172,-8 8,-8c4.41828,0 8,3.58172 8,8c0,4.41828 -3.58172,8 -8,8c-4.41828,0 -8,-3.58172 -8,-8z" fill="#000000" stroke="none" stroke-width="1" stroke-linecap="butt"></path><path d="M64.83596,189.50774c0,-11.04569 8.95431,-20 20,-20c11.04569,0 20,8.95431 20,20c0,11.04569 -8.95431,20 -20,20c-11.04569,0 -20,-8.95431 -20,-20z" fill="none" stroke="#000000" stroke-width="2" stroke-linecap="butt"></path><path d="M212.89329,91.6287l-6.54901,1.81419" fill="none" stroke="#000000" stroke-width="3" stroke-linecap="round"></path><path d="M186.69723,98.88544l-6.54901,1.81419" fill="none" stroke="#000000" stroke-width="3" stroke-linecap="round"></path><path d="M180.14822,100.69963l-6.54901,1.81419" fill="none" stroke="#000000" stroke-width="3" stroke-linecap="round"></path><path d="M162.63947,143.54758l6.34682,8.92557" fill="none" stroke="#000000" stroke-width="3" stroke-linecap="round"></path><path d="M168.98629,152.47315l6.34682,8.92557" fill="none" stroke="#000000" stroke-width="3" stroke-linecap="round"></path><path d="M181.67993,170.32428l6.34682,8.92557" fill="none" stroke="#000000" stroke-width="3" stroke-linecap="round"></path><path d="M188.02675,179.24984l6.34682,8.92557" fill="none" stroke="#000000" stroke-width="3" stroke-linecap="round"></path><path d="M185.78576,218.18909l-10.57368,-3.00414" fill="none" stroke="#000000" stroke-width="3" stroke-linecap="round"></path><path d="M175.21207,215.18495l-10.57368,-3.00414" fill="none" stroke="#000000" stroke-width="3" stroke-linecap="round"></path><path d="M122.34366,200.16424l-10.57368,-3.00414" fill="none" stroke="#000000" stroke-width="3" stroke-linecap="round"></path><path d="M130.78037,117.53494c0,-4.41828 3.58172,-8 8,-8c4.41828,0 8,3.58172 8,8c0,4.41828 -3.58172,8 -8,8c-4.41828,0 -8,-3.58172 -8,-8z" fill="#000000" stroke="none" stroke-width="1" stroke-linecap="butt"></path><path d="M118.78037,117.53494c0,-11.04569 8.95431,-20 20,-20c11.04569,0 20,8.95431 20,20c0,11.04569 -8.95431,20 -20,20c-11.04569,0 -20,-8.95431 -20,-20z" fill="none" stroke="#000000" stroke-width="2" stroke-linecap="butt"></path><path d="M216.32484,224.1416c0,-4.41828 3.58172,-8 8,-8c4.41828,0 8,3.58172 8,8c0,4.41828 -3.58172,8 -8,8c-4.41828,0 -8,-3.58172 -8,-8z" fill="#000000" stroke="none" stroke-width="1" stroke-linecap="butt"></path><path d="M204.32484,224.1416c0,-11.04569 8.95431,-20 20,-20c11.04569,0 20,8.95431 20,20c0,11.04569 -8.95431,20 -20,20c-11.04569,0 -20,-8.95431 -20,-20z" fill="none" stroke="#000000" stroke-width="2" stroke-linecap="butt"></path><path d="M52.38337,69.17485c0,-4.41828 3.58172,-8 8,-8c4.41828,0 8,3.58172 8,8c0,4.41828 -3.58172,8 -8,8c-4.41828,0 -8,-3.58172 -8,-8z" fill="#000000" stroke="none" stroke-width="1" stroke-linecap="butt"></path><path d="M40.38337,69.17485c0,-11.04569 8.95431,-20 20,-20c11.04569,0 20,8.95431 20,20c0,11.04569 -8.95431,20 -20,20c-11.04569,0 -20,-8.95431 -20,-20z" fill="none" stroke="#000000" stroke-width="2" stroke-linecap="butt"></path><path d="M80.27791,184.45978c0,-4.41828 3.58172,-8 8,-8c4.41828,0 8,3.58172 8,8c0,4.41828 -3.58172,8 -8,8c-4.41828,0 -8,-3.58172 -8,-8z" fill="#000000" stroke="none" stroke-width="1" stroke-linecap="butt"></path><path d="M68.27791,184.45978c0,-11.04569 8.95431,-20 20,-20c11.04569,0 20,8.95431 20,20c0,11.04569 -8.95431,20 -20,20c-11.04569,0 -20,-8.95431 -20,-20z" fill="none" stroke="#000000" stroke-width="2" stroke-linecap="butt"></path><path d="M212.89329,91.6287l-6.54901,1.81419" fill="none" stroke="#000000" stroke-width="3" stroke-linecap="round"></path><path d="M186.69723,98.88544l-6.54901,1.81419" fill="none" stroke="#000000" stroke-width="3" stroke-linecap="round"></path><path d="M180.14822,100.69963l-6.54901,1.81419" fill="none" stroke="#000000" stroke-width="3" stroke-linecap="round"></path><path d="M162.63947,143.54758l6.34682,8.92557" fill="none" stroke="#000000" stroke-width="3" stroke-linecap="round"></path><path d="M168.98629,152.47315l6.34682,8.92557" fill="none" stroke="#000000" stroke-width="3" stroke-linecap="round"></path><path d="M181.67993,170.32428l6.34682,8.92557" fill="none" stroke="#000000" stroke-width="3" stroke-linecap="round"></path><path d="M188.02675,179.24984l6.34682,8.92557" fill="none" stroke="#000000" stroke-width="3" stroke-linecap="round"></path><path d="M185.78576,218.18909l-10.57368,-3.00414" fill="none" stroke="#000000" stroke-width="3" stroke-linecap="round"></path><path d="M175.21207,215.18495l-10.57368,-3.00414" fill="none" stroke="#000000" stroke-width="3" stroke-linecap="round"></path><path d="M122.34366,200.16424l-10.57368,-3.00414" fill="none" stroke="#000000" stroke-width="3" stroke-linecap="round"></path><path d="M104.17375,163.7072l2.5448,-3.39529" fill="none" stroke="#000000" stroke-width="3" stroke-linecap="round"></path><path d="M106.71856,160.31191l2.5448,-3.39529" fill="none" stroke="#000000" stroke-width="3" stroke-linecap="round"></path><path d="M111.80817,153.52134l2.5448,-3.39529" fill="none" stroke="#000000" stroke-width="3" stroke-linecap="round"></path><path d="M114.35297,150.12605l2.5448,-3.39529" fill="none" stroke="#000000" stroke-width="3" stroke-linecap="round"></path><path d="M119.44258,143.33548l2.5448,-3.39529" fill="none" stroke="#000000" stroke-width="3" stroke-linecap="round"></path><path d="M162.61629,147.23958l6.31211,7.86623" fill="none" stroke="#000000" stroke-width="3" stroke-linecap="round"></path><path d="M194.17682,186.57073l6.31211,7.86623" fill="none" stroke="#000000" stroke-width="3" stroke-linecap="round"></path><path d="M200.48892,194.43696l6.31211,7.86623" fill="none" stroke="#000000" stroke-width="3" stroke-linecap="round"></path><path d="M188.57107,190.34511l-15.40565,-14.5623" fill="none" stroke="#000000" stroke-width="3" stroke-linecap="round"></path><path d="M173.16542,175.78282l-15.40565,-14.5623" fill="none" stroke="#000000" stroke-width="3" stroke-linecap="round"></path><path d="M142.35411,146.65823l-15.40565,-14.5623" fill="none" stroke="#000000" stroke-width="3" stroke-linecap="round"></path><path d="M126.94845,132.09593l-15.40565,-14.5623" fill="none" stroke="#000000" stroke-width="3" stroke-linecap="round"></path><path d="M111.5428,117.53364l-15.40565,-14.5623" fill="none" stroke="#000000" stroke-width="3" stroke-linecap="round"></path><path d="M96.13714,102.97134l-15.40565,-14.5623" fill="none" stroke="#000000" stroke-width="3" stroke-linecap="round"></path><path d="M68.80887,103.99648l1.84059,7.60695" fill="none" stroke="#000000" stroke-width="3" stroke-linecap="round"></path><path d="M70.64946,111.60343l1.84059,7.60695" fill="none" stroke="#000000" stroke-width="3" stroke-linecap="round"></path><path d="M76.17123,134.42426l1.84059,7.60695" fill="none" stroke="#000000" stroke-width="3" stroke-linecap="round"></path></g></svg>