<svg version="1.1" xmlns="http://www.w3.org/2000/svg" xmlns:xlink="http://www.w3.org/1999/xlink" width="300" height="300" viewBox="0,0,300,300"><g fill="none" fill-rule="nonzero" stroke="none" stroke-width="none" stroke-linecap="none" stroke-linejoin="miter" stroke-miterlimit="10" stroke-dasharray="" stroke-dashoffset="0" font-family="none" font-weight="none" font-size="none" text-anchor="none" style="mix-blend-mode: normal"><path d="M114.41831,70.58604c0,-4.41828 3.58172,-8 8,-8c4.41828,0 8,3.58172 8,8c0,4.41828 -3.58172,8 -8,8c-4.41828,0 -8,-3.58172 -8,-8z" fill="#000000" stroke="none" stroke-width="1" stroke-linecap="butt"></path><path d="M102.41831,70.58604c0,-11.04569 8.95431,-20 20,-20c11.04569,0 20,8.95431 20,20c0,11.04569 -8.95431,20 -20,20c-11.04569,0 -20,-8.95431 -20,-20z" fill="none" stroke="#000000" stroke-width="2" stroke-linecap="butt"></path><path d="M176.07188,128.71934c0,-4.41828 3.58172,-8 8,-8c4.41828,0 8,3.58172 8,8c0,4.41828 -3.58172,8 -8,8c-4.41828,0 -8,-3.58172 -8,-8z" fill="#000000" stroke="none" stroke-width="1" stroke-linecap="butt"></path><path d="M164.07188,128.71934c0,-11.04569 8.95431,-20 20,-20c11.04569,0 20,8.95431 20,20c0,11.04569 -8.95431,20 -20,20c-11.04569,0 -20,-8.95431 -20,-20z" fill="none" stroke="#000000" stroke-width="2" stroke-linecap="butt"></path><path d="M211.43572,242.87259c0,-4.41828 3.58172,-8 8,-8c4.41828,0 8,3.58172 8,8c0,4.41828 -3.58172,8 -8,8c-4.41828,0 -8,-3.58172 -8,-8z" fill="#000000" stroke="none" stroke-width="1" stroke-linecap="butt"></path><path d="M199.43572,242.87259c0,-11.04569 8.95431,-20 20,-20c11.04569,0 20,8.95431 20,20c0,11.04569 -8.95431,20 -20,20c-11.04569,0 -20,-8.95431 -20,-20z" fill="none" stroke="#000000" stroke-width="2" stroke-linecap="butt"></path><path d="M118.8378,189.5938c0,-4.41828 3.58172,-8 8,-8c4.41828,0 8,3.58172 8,8c0,4.41828 -3.58172,8 -8,8c-4.41828,0 -8,-3.58172 -8,-8z" fill="#000000" stroke="none" stroke-width="1" stroke-linecap="butt"></path><path d="M106.8378,189.5938c0,-11.04569 8.95431,-20 20,-20c11.04569,0 20,8.95431 20,20c0,11.04569 -8.95431,20 -20,20c-11.04569,0 -20,-8.95431 -20,-20z" fill="none" stroke="#000000" stroke-width="2" stroke-linecap="butt"></path><path d="M145.40404,92.25934l2.61369,2.46445" fill="none" stroke="#000000" stroke-width="3" stroke-linecap="round"></path><path d="M155.85878,102.11714l2.61369,2.46445" fill="none" stroke="#000000" stroke-width="3" stroke-linecap="round"></path><path d="M158.47247,104.58159l2.61369,2.46445" fill="none" stroke="#000000" stroke-width="3" stroke-linecap="round"></path><path d="M194.70664,163.04798l2.34905,7.58266" fill="none" stroke="#000000" stroke-width="3" stroke-linecap="round"></path><path d="M197.0557,170.63064l2.34905,7.58266" fill="none" stroke="#000000" stroke-width="3" stroke-linecap="round"></path><path d="M201.7538,185.79597l2.34905,7.58266" fill="none" stroke="#000000" stroke-width="3" stroke-linecap="round"></path><path d="M204.10286,193.37863l2.34905,7.58266" fill="none" stroke="#000000" stroke-width="3" stroke-linecap="round"></path><path d="M189.65892,225.73968l-5.50739,-3.16883" fill="none" stroke="#000000" stroke-width="3" stroke-linecap="round"></path><path d="M184.15154,222.57085l-5.50739,-3.16883" fill="none" stroke="#000000" stroke-width="3" stroke-linecap="round"></path><path d="M156.6146,206.72671l-5.50739,-3.16883" fill="none" stroke="#000000" stroke-width="3" stroke-linecap="round"></path></g></svg>