<svg version="1.1" xmlns="http://www.w3.org/2000/svg" xmlns:xlink="http://www.w3.org/1999/xlink" width="300" height="300" viewBox="0,0,300,300"><g fill="none" fill-rule="nonzero" stroke="none" stroke-width="none" stroke-linecap="none" stroke-linejoin="miter" stroke-miterlimit="10" stroke-dasharray="" stroke-dashoffset="0" font-family="none" font-weight="none" font-size="none" text-anchor="none" style="mix-blend-mode: normal"><path d="M231.86968,93.65559c0,-4.41828 3.58172,-8 8,-8c4.41828,0 8,3.58172 8,8c0,4.41828 -3.58172,8 -8,8c-4.41828,0 -8,-3.58172 -8,-8z" fill="#000000" stroke="none" stroke-width="1" stroke-linecap="butt"></path><path d="M219.86968,93.65559c0,-11.04569 8.95431,-20 20,-20c11.04569,0 20,8.95431 20,20c0,11.04569 -8.95431,20 -20,20c-11.04569,0 -20,-8.95431 -20,-20z" fill="none" stroke="#000000" stroke-width="2" stroke-linecap="butt"></path><path d="M151.09832,93.74522c0,-4.41828 3.58172,-8 8,-8c4.41828,0 8,3.58172 8,8c0,4.41828 -3.58172,8 -8,8c-4.41828,0 -8,-3.58172 -8,-8z" fill="#000000" stroke="none" stroke-width="1" stroke-linecap="butt"></path><path d="M139.09832,93.74522c0,-11.04569 8.95431,-20 20,-20c11.04569,0 20,8.95431 20,20c0,11.04569 -8.95431,20 -20,20c-11.04569,0 -20,-8.95431 -20,-20z" fill="none" stroke="#000000" stroke-width="2" stroke-linecap="butt"></path><path d="M151.86695,175.18374c0,-4.41828 3.58172,-8 8,-8c4.41828,0 8,3.58172 8,8c0,4.41828 -3.58172,8 -8,8c-4.41828,0 -8,-3.58172 -8,-8z" fill="#000000" stroke="none" stroke-width="1" stroke-linecap="butt"></path><path d="M139.86695,175.18374c0,-11.04569 8.95431,-20 20,-20c11.04569,0 20,8.95431 20,20c0,11.04569 -8.95431,20 -20,20c-11.04569,0 -20,-8.95431 -20,-20z" fill="none" stroke="#000000" stroke-width="2" stroke-linecap="butt"></path><path d="M48.88396,217.70699c0,-4.41828 3.58172,-8 8,-8c4.41828,0 8,3.58172 8,8c0,4.41828 -3.58172,8 -8,8c-4.41828,0 -8,-3.58172 -8,-8z" fill="#000000" stroke="none" stroke-width="1" stroke-linecap="butt"></path><path d="M36.88396,217.70699c0,-11.04569 8.95431,-20 20,-20c11.04569,0 20,8.95431 20,20c0,11.04569 -8.95431,20 -20,20c-11.04569,0 -20,-8.95431 -20,-20z" fill="none" stroke="#000000" stroke-width="2" stroke-linecap="butt"></path><path d="M208.77327,93.6901l-3.09642,0.00344" fill="none" stroke="#000000" stroke-width="3" stroke-linecap="round"></path><path d="M196.38757,93.70384l-3.09642,0.00344" fill="none" stroke="#000000" stroke-width="3" stroke-linecap="round"></path><path d="M193.29115,93.70728l-3.09642,0.00344" fill="none" stroke="#000000" stroke-width="3" stroke-linecap="round"></path><path d="M159.39259,124.9241l0.03001,3.18013" fill="none" stroke="#000000" stroke-width="3" stroke-linecap="round"></path><path d="M159.42261,128.10422l0.03001,3.18013" fill="none" stroke="#000000" stroke-width="3" stroke-linecap="round"></path><path d="M159.48264,134.46448l0.03001,3.18013" fill="none" stroke="#000000" stroke-width="3" stroke-linecap="round"></path><path d="M159.51265,137.6446l0.03001,3.18013" fill="none" stroke="#000000" stroke-width="3" stroke-linecap="round"></path><path d="M127.58371,188.51398l-6.40275,2.64379" fill="none" stroke="#000000" stroke-width="3" stroke-linecap="round"></path><path d="M121.18096,191.15777l-6.40275,2.64379" fill="none" stroke="#000000" stroke-width="3" stroke-linecap="round"></path><path d="M89.1672,204.37675l-6.40275,2.64379" fill="none" stroke="#000000" stroke-width="3" stroke-linecap="round"></path></g></svg>