<svg version="1.1" xmlns="http://www.w3.org/2000/svg" xmlns:xlink="http://www.w3.org/1999/xlink" width="300" height="300" viewBox="0,0,300,300"><g fill="none" fill-rule="nonzero" stroke="none" stroke-width="none" stroke-linecap="none" stroke-linejoin="miter" stroke-miterlimit="10" stroke-dasharray="" stroke-dashoffset="0" font-family="none" font-weight="none" font-size="none" text-anchor="none" style="mix-blend-mode: normal"><path d="M223.9577,54.77454c0,-4.41828 3.58172,-8 8,-8c4.41828,0 8,3.58172 8,8c0,4.41828 -3.58172,8 -8,8c-4.41828,0 -8,-3.58172 -8,-8z" fill="#000000" stroke="none" stroke-width="1" stroke-linecap="butt"></path><path d="M211.9577,54.77454c0,-11.04569 8.95431,-20 20,-20c11.04569,0 20,8.95431 20,20c0,11.04569 -8.95431,20 -20,20c-11.04569,0 -20,-8.95431 -20,-20z" fill="none" stroke="#000000" stroke-width="2" stroke-linecap="butt"></path><path d="M215.75509,217.83487c0,-4.41828 3.58172,-8 8,-8c4.41828,0 8,3.58172 8,8c0,4.41828 -3.58172,8 -8,8c-4.41828,0 -8,-3.58172 -8,-8z" fill="#000000" stroke="none" stroke-width="1" stroke-linecap="butt"></path><path d="M203.75509,217.83487c0,-11.04569 8.95431,-20 20,-20c11.04569,0 20,8.95431 20,20c0,11.04569 -8.95431,20 -20,20c-11.04569,0 -20,-8.95431 -20,-20z" fill="none" stroke="#000000" stroke-width="2" stroke-linecap="butt"></path><path d="M81.94159,114.54996c0,-4.41828 3.58172,-8 8,-8c4.41828,0 8,3.58172 8,8c0,4.41828 -3.58172,8 -8,8c-4.41828,0 -8,-3.58172 -8,-8z" fill="#000000" stroke="none" stroke-width="1" stroke-linecap="butt"></path><path d="M69.94159,114.54996c0,-11.04569 8.95431,-20 20,-20c11.04569,0 20,8.95431 20,20c0,11.04569 -8.95431,20 -20,20c-11.04569,0 -20,-8.95431 -20,-20z" fill="none" stroke="#000000" stroke-width="2" stroke-linecap="butt"></path><path d="M127.80491,195.89366c0,-4.41828 3.58172,-8 8,-8c4.41828,0 8,3.58172 8,8c0,4.41828 -3.58172,8 -8,8c-4.41828,0 -8,-3.58172 -8,-8z" fill="#000000" stroke="none" stroke-width="1" stroke-linecap="butt"></path><path d="M115.80491,195.89366c0,-11.04569 8.95431,-20 20,-20c11.04569,0 20,8.95431 20,20c0,11.04569 -8.95431,20 -20,20c-11.04569,0 -20,-8.95431 -20,-20z" fill="none" stroke="#000000" stroke-width="2" stroke-linecap="butt"></path><path d="M229.87732,96.13056l-0.67364,13.39138" fill="none" stroke="#000000" stroke-width="3" stroke-linecap="round"></path><path d="M227.18275,149.69609l-0.67364,13.39138" fill="none" stroke="#000000" stroke-width="3" stroke-linecap="round"></path><path d="M226.50911,163.08747l-0.67364,13.39138" fill="none" stroke="#000000" stroke-width="3" stroke-linecap="round"></path><path d="M190.40442,192.09292l-11.18536,-8.6335" fill="none" stroke="#000000" stroke-width="3" stroke-linecap="round"></path><path d="M179.21906,183.45942l-11.18536,-8.6335" fill="none" stroke="#000000" stroke-width="3" stroke-linecap="round"></path><path d="M156.84834,166.19242l-11.18536,-8.6335" fill="none" stroke="#000000" stroke-width="3" stroke-linecap="round"></path><path d="M145.66298,157.55891l-11.18536,-8.6335" fill="none" stroke="#000000" stroke-width="3" stroke-linecap="round"></path><path d="M105.98835,143.01067l2.29497,4.07038" fill="none" stroke="#000000" stroke-width="3" stroke-linecap="round"></path><path d="M108.28332,147.08105l2.29497,4.07038" fill="none" stroke="#000000" stroke-width="3" stroke-linecap="round"></path><path d="M119.75815,167.43294l2.29497,4.07038" fill="none" stroke="#000000" stroke-width="3" stroke-linecap="round"></path><path d="M184.99573,60.89948c0,-4.41828 3.58172,-8 8,-8c4.41828,0 8,3.58172 8,8c0,4.41828 -3.58172,8 -8,8c-4.41828,0 -8,-3.58172 -8,-8z" fill="#000000" stroke="none" stroke-width="1" stroke-linecap="butt"></path><path d="M172.99573,60.89948c0,-11.04569 8.95431,-20 20,-20c11.04569,0 20,8.95431 20,20c0,11.04569 -8.95431,20 -20,20c-11.04569,0 -20,-8.95431 -20,-20z" fill="none" stroke="#000000" stroke-width="2" stroke-linecap="butt"></path><path d="M92.36923,71.25509c0,-4.41828 3.58172,-8 8,-8c4.41828,0 8,3.58172 8,8c0,4.41828 -3.58172,8 -8,8c-4.41828,0 -8,-3.58172 -8,-8z" fill="#000000" stroke="none" stroke-width="1" stroke-linecap="butt"></path><path d="M80.36923,71.25509c0,-11.04569 8.95431,-20 20,-20c11.04569,0 20,8.95431 20,20c0,11.04569 -8.95431,20 -20,20c-11.04569,0 -20,-8.95431 -20,-20z" fill="none" stroke="#000000" stroke-width="2" stroke-linecap="butt"></path><path d="M127.67255,176.70113c0,-4.41828 3.58172,-8 8,-8c4.41828,0 8,3.58172 8,8c0,4.41828 -3.58172,8 -8,8c-4.41828,0 -8,-3.58172 -8,-8z" fill="#000000" stroke="none" stroke-width="1" stroke-linecap="butt"></path><path d="M115.67255,176.70113c0,-11.04569 8.95431,-20 20,-20c11.04569,0 20,8.95431 20,20c0,11.04569 -8.95431,20 -20,20c-11.04569,0 -20,-8.95431 -20,-20z" fill="none" stroke="#000000" stroke-width="2" stroke-linecap="butt"></path><path d="M57.26931,229.63294c0,-4.41828 3.58172,-8 8,-8c4.41828,0 8,3.58172 8,8c0,4.41828 -3.58172,8 -8,8c-4.41828,0 -8,-3.58172 -8,-8z" fill="#000000" stroke="none" stroke-width="1" stroke-linecap="butt"></path><path d="M45.26931,229.63294c0,-11.04569 8.95431,-20 20,-20c11.04569,0 20,8.95431 20,20c0,11.04569 -8.95431,20 -20,20c-11.04569,0 -20,-8.95431 -20,-20z" fill="none" stroke="#000000" stroke-width="2" stroke-linecap="butt"></path><path d="M229.87732,96.13056l-0.67364,13.39138" fill="none" stroke="#000000" stroke-width="3" stroke-linecap="round"></path><path d="M227.18275,149.69609l-0.67364,13.39138" fill="none" stroke="#000000" stroke-width="3" stroke-linecap="round"></path><path d="M226.50911,163.08747l-0.67364,13.39138" fill="none" stroke="#000000" stroke-width="3" stroke-linecap="round"></path><path d="M190.40442,192.09292l-11.18536,-8.6335" fill="none" stroke="#000000" stroke-width="3" stroke-linecap="round"></path><path d="M179.21906,183.45942l-11.18536,-8.6335" fill="none" stroke="#000000" stroke-width="3" stroke-linecap="round"></path><path d="M156.84834,166.19242l-11.18536,-8.6335" fill="none" stroke="#000000" stroke-width="3" stroke-linecap="round"></path><path d="M145.66298,157.55891l-11.18536,-8.6335" fill="none" stroke="#000000" stroke-width="3" stroke-linecap="round"></path><path d="M105.98835,143.01067l2.29497,4.07038" fill="none" stroke="#000000" stroke-width="3" stroke-linecap="round"></path><path d="M108.28332,147.08105l2.29497,4.07038" fill="none" stroke="#000000" stroke-width="3" stroke-linecap="round"></path><path d="M119.75815,167.43294l2.29497,4.07038" fill="none" stroke="#000000" stroke-width="3" stroke-linecap="round"></path><path d="M151.14566,159.68308l4.41822,-10.42884" fill="none" stroke="#000000" stroke-width="3" stroke-linecap="round"></path><path d="M155.56388,149.25424l4.41822,-10.42884" fill="none" stroke="#000000" stroke-width="3" stroke-linecap="round"></path><path d="M164.40032,128.39657l4.41822,-10.42884" fill="none" stroke="#000000" stroke-width="3" stroke-linecap="round"></path><path d="M168.81854,117.96773l4.41822,-10.42884" fill="none" stroke="#000000" stroke-width="3" stroke-linecap="round"></path><path d="M177.65498,97.11005l4.41822,-10.42884" fill="none" stroke="#000000" stroke-width="3" stroke-linecap="round"></path><path d="M160.54744,64.52719l-4.62165,0.5167" fill="none" stroke="#000000" stroke-width="3" stroke-linecap="round"></path><path d="M137.43918,67.11068l-4.62165,0.5167" fill="none" stroke="#000000" stroke-width="3" stroke-linecap="round"></path><path d="M132.81752,67.62738l-4.62165,0.5167" fill="none" stroke="#000000" stroke-width="3" stroke-linecap="round"></path><path d="M111.44921,104.34942l2.19056,6.5429" fill="none" stroke="#000000" stroke-width="3" stroke-linecap="round"></path><path d="M113.63977,110.89231l2.19056,6.5429" fill="none" stroke="#000000" stroke-width="3" stroke-linecap="round"></path><path d="M118.02089,123.97811l2.19056,6.5429" fill="none" stroke="#000000" stroke-width="3" stroke-linecap="round"></path><path d="M120.21146,130.52101l2.19056,6.5429" fill="none" stroke="#000000" stroke-width="3" stroke-linecap="round"></path><path d="M122.40202,137.06391l2.19056,6.5429" fill="none" stroke="#000000" stroke-width="3" stroke-linecap="round"></path><path d="M124.59258,143.60681l2.19056,6.5429" fill="none" stroke="#000000" stroke-width="3" stroke-linecap="round"></path><path d="M110.08697,195.93734l-3.20534,2.4099" fill="none" stroke="#000000" stroke-width="3" stroke-linecap="round"></path><path d="M106.88162,198.34724l-3.20534,2.4099" fill="none" stroke="#000000" stroke-width="3" stroke-linecap="round"></path><path d="M97.26559,205.57693l-3.20534,2.4099" fill="none" stroke="#000000" stroke-width="3" stroke-linecap="round"></path></g></svg>