<svg version="1.1" xmlns="http://www.w3.org/2000/svg" xmlns:xlink="http://www.w3.org/1999/xlink" width="300" height="300" viewBox="0,0,300,300"><g fill="none" fill-rule="nonzero" stroke="none" stroke-width="none" stroke-linecap="none" stroke-linejoin="miter" stroke-miterlimit="10" stroke-dasharray="" stroke-dashoffset="0" font-family="none" font-weight="none" font-size="none" text-anchor="none" style="mix-blend-mode: normal"><path d="M187.33491,51.01917c0,-4.41828 3.58172,-8 8,-8c4.41828,0 8,3.58172 8,8c0,4.41828 -3.58172,8 -8,8c-4.41828,0 -8,-3.58172 -8,-8z" fill="#000000" stroke="none" stroke-width="1" stroke-linecap="butt"></path><path d="M175.33491,51.01917c0,-11.04569 8.95431,-20 20,-20c11.04569,0 20,8.95431 20,20c0,11.04569 -8.95431,20 -20,20c-11.04569,0 -20,-8.95431 -20,-20z" fill="none" stroke="#000000" stroke-width="2" stroke-linecap="butt"></path><path d="M219.06351,171.68891c0,-4.41828 3.58172,-8 8,-8c4.41828,0 8,3.58172 8,8c0,4.41828 -3.58172,8 -8,8c-4.41828,0 -8,-3.58172 -8,-8z" fill="#000000" stroke="none" stroke-width="1" stroke-linecap="butt"></path><path d="M207.06351,171.68891c0,-11.04569 8.95431,-20 20,-20c11.04569,0 20,8.95431 20,20c0,11.04569 -8.95431,20 -20,20c-11.04569,0 -20,-8.95431 -20,-20z" fill="none" stroke="#000000" stroke-width="2" stroke-linecap="butt"></path><path d="M72.73989,66.5993c0,-4.41828 3.58172,-8 8,-8c4.41828,0 8,3.58172 8,8c0,4.41828 -3.58172,8 -8,8c-4.41828,0 -8,-3.58172 -8,-8z" fill="#000000" stroke="none" stroke-width="1" stroke-linecap="butt"></path><path d="M60.73989,66.5993c0,-11.04569 8.95431,-20 20,-20c11.04569,0 20,8.95431 20,20c0,11.04569 -8.95431,20 -20,20c-11.04569,0 -20,-8.95431 -20,-20z" fill="none" stroke="#000000" stroke-width="2" stroke-linecap="butt"></path><path d="M130.89041,152.40304c0,-4.41828 3.58172,-8 8,-8c4.41828,0 8,3.58172 8,8c0,4.41828 -3.58172,8 -8,8c-4.41828,0 -8,-3.58172 -8,-8z" fill="#000000" stroke="none" stroke-width="1" stroke-linecap="butt"></path><path d="M118.89041,152.40304c0,-11.04569 8.95431,-20 20,-20c11.04569,0 20,8.95431 20,20c0,11.04569 -8.95431,20 -20,20c-11.04569,0 -20,-8.95431 -20,-20z" fill="none" stroke="#000000" stroke-width="2" stroke-linecap="butt"></path><path d="M208.77327,93.6901l-3.09642,0.00344" fill="none" stroke="#000000" stroke-width="3" stroke-linecap="round"></path><path d="M196.38757,93.70384l-3.09642,0.00344" fill="none" stroke="#000000" stroke-width="3" stroke-linecap="round"></path><path d="M193.29115,93.70728l-3.09642,0.00344" fill="none" stroke="#000000" stroke-width="3" stroke-linecap="round"></path><path d="M159.39259,124.9241l0.03001,3.18013" fill="none" stroke="#000000" stroke-width="3" stroke-linecap="round"></path><path d="M159.42261,128.10422l0.03001,3.18013" fill="none" stroke="#000000" stroke-width="3" stroke-linecap="round"></path><path d="M159.48264,134.46448l0.03001,3.18013" fill="none" stroke="#000000" stroke-width="3" stroke-linecap="round"></path><path d="M159.51265,137.6446l0.03001,3.18013" fill="none" stroke="#000000" stroke-width="3" stroke-linecap="round"></path><path d="M127.58371,188.51398l-6.40275,2.64379" fill="none" stroke="#000000" stroke-width="3" stroke-linecap="round"></path><path d="M121.18096,191.15777l-6.40275,2.64379" fill="none" stroke="#000000" stroke-width="3" stroke-linecap="round"></path><path d="M89.1672,204.37675l-6.40275,2.64379" fill="none" stroke="#000000" stroke-width="3" stroke-linecap="round"></path><path d="M87.60813,180.71667l12.83377,-15.4512" fill="none" stroke="#000000" stroke-width="3" stroke-linecap="round"></path><path d="M100.44189,165.26548l12.83377,-15.4512" fill="none" stroke="#000000" stroke-width="3" stroke-linecap="round"></path><path d="M126.10943,134.36308l12.83377,-15.4512" fill="none" stroke="#000000" stroke-width="3" stroke-linecap="round"></path><path d="M138.9432,118.91188l12.83377,-15.4512" fill="none" stroke="#000000" stroke-width="3" stroke-linecap="round"></path><path d="M164.61074,88.00949l12.83377,-15.4512" fill="none" stroke="#000000" stroke-width="3" stroke-linecap="round"></path><path d="M204.64116,86.41255l2.18602,8.31383" fill="none" stroke="#000000" stroke-width="3" stroke-linecap="round"></path><path d="M215.57124,127.9817l2.18602,8.31383" fill="none" stroke="#000000" stroke-width="3" stroke-linecap="round"></path><path d="M217.75726,136.29553l2.18602,8.31383" fill="none" stroke="#000000" stroke-width="3" stroke-linecap="round"></path><path d="M191.71629,146.30254l-12.60486,-9.05281" fill="none" stroke="#000000" stroke-width="3" stroke-linecap="round"></path><path d="M179.11143,137.24973l-12.60486,-9.05281" fill="none" stroke="#000000" stroke-width="3" stroke-linecap="round"></path><path d="M153.9017,119.14411l-12.60486,-9.05281" fill="none" stroke="#000000" stroke-width="3" stroke-linecap="round"></path><path d="M141.29684,110.0913l-12.60486,-9.05281" fill="none" stroke="#000000" stroke-width="3" stroke-linecap="round"></path><path d="M128.69198,101.03849l-12.60486,-9.05281" fill="none" stroke="#000000" stroke-width="3" stroke-linecap="round"></path><path d="M116.08711,91.98567l-12.60486,-9.05281" fill="none" stroke="#000000" stroke-width="3" stroke-linecap="round"></path><path d="M99.79005,94.70867l3.3417,4.93083" fill="none" stroke="#000000" stroke-width="3" stroke-linecap="round"></path><path d="M103.13175,99.63951l3.3417,4.93083" fill="none" stroke="#000000" stroke-width="3" stroke-linecap="round"></path><path d="M113.15686,114.432l3.3417,4.93083" fill="none" stroke="#000000" stroke-width="3" stroke-linecap="round"></path></g></svg>