<svg version="1.1" xmlns="http://www.w3.org/2000/svg" xmlns:xlink="http://www.w3.org/1999/xlink" width="300" height="300" viewBox="0,0,300,300"><g fill="none" fill-rule="nonzero" stroke="none" stroke-width="none" stroke-linecap="none" stroke-linejoin="miter" stroke-miterlimit="10" stroke-dasharray="" stroke-dashoffset="0" font-family="none" font-weight="none" font-size="none" text-anchor="none" style="mix-blend-mode: normal"><path d="M209.0487,73.42212c0,-4.41828 3.58172,-8 8,-8c4.41828,0 8,3.58172 8,8c0,4.41828 -3.58172,8 -8,8c-4.41828,0 -8,-3.58172 -8,-8z" fill="#000000" stroke="none" stroke-width="1" stroke-linecap="butt"></path><path d="M197.0487,73.42212c0,-11.04569 8.95431,-20 20,-20c11.04569,0 20,8.95431 20,20c0,11.04569 -8.95431,20 -20,20c-11.04569,0 -20,-8.95431 -20,-20z" fill="none" stroke="#000000" stroke-width="2" stroke-linecap="butt"></path><path d="M88.93795,72.19151c0,-4.41828 3.58172,-8 8,-8c4.41828,0 8,3.58172 8,8c0,4.41828 -3.58172,8 -8,8c-4.41828,0 -8,-3.58172 -8,-8z" fill="#000000" stroke="none" stroke-width="1" stroke-linecap="butt"></path><path d="M76.93795,72.19151c0,-11.04569 8.95431,-20 20,-20c11.04569,0 20,8.95431 20,20c0,11.04569 -8.95431,20 -20,20c-11.04569,0 -20,-8.95431 -20,-20z" fill="none" stroke="#000000" stroke-width="2" stroke-linecap="butt"></path><path d="M162.2359,218.61583c0,-4.41828 3.58172,-8 8,-8c4.41828,0 8,3.58172 8,8c0,4.41828 -3.58172,8 -8,8c-4.41828,0 -8,-3.58172 -8,-8z" fill="#000000" stroke="none" stroke-width="1" stroke-linecap="butt"></path><path d="M150.2359,218.61583c0,-11.04569 8.95431,-20 20,-20c11.04569,0 20,8.95431 20,20c0,11.04569 -8.95431,20 -20,20c-11.04569,0 -20,-8.95431 -20,-20z" fill="none" stroke="#000000" stroke-width="2" stroke-linecap="butt"></path><path d="M75.29297,175.3449c0,-4.41828 3.58172,-8 8,-8c4.41828,0 8,3.58172 8,8c0,4.41828 -3.58172,8 -8,8c-4.41828,0 -8,-3.58172 -8,-8z" fill="#000000" stroke="none" stroke-width="1" stroke-linecap="butt"></path><path d="M63.29297,175.3449c0,-11.04569 8.95431,-20 20,-20c11.04569,0 20,8.95431 20,20c0,11.04569 -8.95431,20 -20,20c-11.04569,0 -20,-8.95431 -20,-20z" fill="none" stroke="#000000" stroke-width="2" stroke-linecap="butt"></path><path d="M145.40404,92.25934l2.61369,2.46445" fill="none" stroke="#000000" stroke-width="3" stroke-linecap="round"></path><path d="M155.85878,102.11714l2.61369,2.46445" fill="none" stroke="#000000" stroke-width="3" stroke-linecap="round"></path><path d="M158.47247,104.58159l2.61369,2.46445" fill="none" stroke="#000000" stroke-width="3" stroke-linecap="round"></path><path d="M194.70664,163.04798l2.34905,7.58266" fill="none" stroke="#000000" stroke-width="3" stroke-linecap="round"></path><path d="M197.0557,170.63064l2.34905,7.58266" fill="none" stroke="#000000" stroke-width="3" stroke-linecap="round"></path><path d="M201.7538,185.79597l2.34905,7.58266" fill="none" stroke="#000000" stroke-width="3" stroke-linecap="round"></path><path d="M204.10286,193.37863l2.34905,7.58266" fill="none" stroke="#000000" stroke-width="3" stroke-linecap="round"></path><path d="M189.65892,225.73968l-5.50739,-3.16883" fill="none" stroke="#000000" stroke-width="3" stroke-linecap="round"></path><path d="M184.15154,222.57085l-5.50739,-3.16883" fill="none" stroke="#000000" stroke-width="3" stroke-linecap="round"></path><path d="M156.6146,206.72671l-5.50739,-3.16883" fill="none" stroke="#000000" stroke-width="3" stroke-linecap="round"></path><path d="M150.99402,158.48592l6.98308,-8.99266" fill="none" stroke="#000000" stroke-width="3" stroke-linecap="round"></path><path d="M157.9771,149.49327l6.98308,-8.99266" fill="none" stroke="#000000" stroke-width="3" stroke-linecap="round"></path><path d="M171.94325,131.50796l6.98308,-8.99266" fill="none" stroke="#000000" stroke-width="3" stroke-linecap="round"></path><path d="M178.92632,122.5153l6.98308,-8.99266" fill="none" stroke="#000000" stroke-width="3" stroke-linecap="round"></path><path d="M192.89247,104.52999l6.98308,-8.99266" fill="none" stroke="#000000" stroke-width="3" stroke-linecap="round"></path><path d="M181.03596,73.05315l-8.01421,-0.08211" fill="none" stroke="#000000" stroke-width="3" stroke-linecap="round"></path><path d="M140.9649,72.64259l-8.01421,-0.08211" fill="none" stroke="#000000" stroke-width="3" stroke-linecap="round"></path><path d="M132.95069,72.56048l-8.01421,-0.08211" fill="none" stroke="#000000" stroke-width="3" stroke-linecap="round"></path><path d="M115.50048,109.27312l6.02881,12.04352" fill="none" stroke="#000000" stroke-width="3" stroke-linecap="round"></path><path d="M121.52929,121.31664l6.02881,12.04352" fill="none" stroke="#000000" stroke-width="3" stroke-linecap="round"></path><path d="M133.58692,145.40367l6.02881,12.04352" fill="none" stroke="#000000" stroke-width="3" stroke-linecap="round"></path><path d="M139.61574,157.44719l6.02881,12.04352" fill="none" stroke="#000000" stroke-width="3" stroke-linecap="round"></path><path d="M145.64455,169.4907l6.02881,12.04352" fill="none" stroke="#000000" stroke-width="3" stroke-linecap="round"></path><path d="M151.67337,181.53422l6.02881,12.04352" fill="none" stroke="#000000" stroke-width="3" stroke-linecap="round"></path><path d="M140.56775,203.85018l-4.6011,-2.28994" fill="none" stroke="#000000" stroke-width="3" stroke-linecap="round"></path><path d="M135.96664,201.56024l-4.6011,-2.28994" fill="none" stroke="#000000" stroke-width="3" stroke-linecap="round"></path><path d="M122.16333,194.69043l-4.6011,-2.28994" fill="none" stroke="#000000" stroke-width="3" stroke-linecap="round"></path></g></svg>