<svg version="1.1" xmlns="http://www.w3.org/2000/svg" xmlns:xlink="http://www.w3.org/1999/xlink" width="300" height="300" viewBox="0,0,300,300"><g fill="none" fill-rule="nonzero" stroke="none" stroke-width="none" stroke-linecap="none" stroke-linejoin="miter" stroke-miterlimit="10" stroke-dasharray="" stroke-dashoffset="0" font-family="none" font-weight="none" font-size="none" text-anchor="none" style="mix-blend-mode: normal"><path d="M223.44036,166.47785c0,-4.41828 3.58172,-8 8,-8c4.41828,0 8,3.58172 8,8c0,4.41828 -3.58172,8 -8,8c-4.41828,0 -8,-3.58172 -8,-8z" fill="#000000" stroke="none" stroke-width="1" stroke-linecap="butt"></path><path d="M211.44036,166.47785c0,-11.04569 8.95431,-20 20,-20c11.04569,0 20,8.95431 20,20c0,11.04569 -8.95431,20 -20,20c-11.04569,0 -20,-8.95431 -20,-20z" fill="none" stroke="#000000" stroke-width="2" stroke-linecap="butt"></path><path d="M85.91238,81.08284c0,-4.41828 3.58172,-8 8,-8c4.41828,0 8,3.58172 8,8c0,4.41828 -3.58172,8 -8,8c-4.41828,0 -8,-3.58172 -8,-8z" fill="#000000" stroke="none" stroke-width="1" stroke-linecap="butt"></path><path d="M73.91238,81.08284c0,-11.04569 8.95431,-20 20,-20c11.04569,0 20,8.95431 20,20c0,11.04569 -8.95431,20 -20,20c-11.04569,0 -20,-8.95431 -20,-20z" fill="none" stroke="#000000" stroke-width="2" stroke-linecap="butt"></path><path d="M200.2318,147.09958l-12.51848,-7.77308" fill="none" stroke="#000000" stroke-width="3" stroke-linecap="round"></path><path d="M150.15789,116.00727l-12.51848,-7.77308" fill="none" stroke="#000000" stroke-width="3" stroke-linecap="round"></path><path d="M137.63942,108.2342l-12.51848,-7.77308" fill="none" stroke="#000000" stroke-width="3" stroke-linecap="round"></path></g></svg>