<svg version="1.1" xmlns="http://www.w3.org/2000/svg" xmlns:xlink="http://www.w3.org/1999/xlink" width="300" height="300" viewBox="0,0,300,300"><g fill="none" fill-rule="nonzero" stroke="none" stroke-width="none" stroke-linecap="butt" stroke-linejoin="miter" stroke-miterlimit="10" stroke-dasharray="" stroke-dashoffset="0" font-family="none" font-weight="none" font-size="none" text-anchor="none" style="mix-blend-mode: normal"><path d="M215.06595,157.44812c0,-4.41828 3.58172,-8 8,-8c4.41828,0 8,3.58172 8,8c0,4.41828 -3.58172,8 -8,8c-4.41828,0 -8,-3.58172 -8,-8z" fill="#000000" stroke="none" stroke-width="1"></path><path d="M203.06595,157.44812c0,-11.04569 8.95431,-20 20,-20c11.04569,0 20,8.95431 20,20c0,11.04569 -8.95431,20 -20,20c-11.04569,0 -20,-8.95431 -20,-20z" fill="none" stroke="#000000" stroke-width="2"></path><path d="M116.7927,105.866c0,-4.41828 3.58172,-8 8,-8c4.41828,0 8,3.58172 8,8c0,4.41828 -3.58172,8 -8,8c-4.41828,0 -8,-3.58172 -8,-8z" fill="#000000" stroke="none" stroke-width="1"></path><path d="M104.7927,105.866c0,-11.04569 8.95431,-20 20,-20c11.04569,0 20,8.95431 20,20c0,11.04569 -8.95431,20 -20,20c-11.04569,0 -20,-8.95431 -20,-20z" fill="none" stroke="#000000" stroke-width="2"></path><path d="M136.5418,220.10804c0,-4.41828 3.58172,-8 8,-8c4.41828,0 8,3.58172 8,8c0,4.41828 -3.58172,8 -8,8c-4.41828,0 -8,-3.58172 -8,-8z" fill="#000000" stroke="none" stroke-width="1"></path><path d="M124.5418,220.10804c0,-11.04569 8.95431,-20 20,-20c11.04569,0 20,8.95431 20,20c0,11.04569 -8.95431,20 -20,20c-11.04569,0 -20,-8.95431 -20,-20z" fill="none" stroke="#000000" stroke-width="2"></path><path d="M44.26401,181.95328c0,-4.41828 3.58172,-8 8,-8c4.41828,0 8,3.58172 8,8c0,4.41828 -3.58172,8 -8,8c-4.41828,0 -8,-3.58172 -8,-8z" fill="#000000" stroke="none" stroke-width="1"></path><path d="M32.26401,181.95328c0,-11.04569 8.95431,-20 20,-20c11.04569,0 20,8.95431 20,20c0,11.04569 -8.95431,20 -20,20c-11.04569,0 -20,-8.95431 -20,-20z" fill="none" stroke="#000000" stroke-width="2"></path></g></svg>