<?xml version="1.0" encoding="UTF-8" standalone="no"?>
<svg
   xmlns:dc="http://purl.org/dc/elements/1.1/"
   xmlns:cc="http://creativecommons.org/ns#"
   xmlns:rdf="http://www.w3.org/1999/02/22-rdf-syntax-ns#"
   xmlns:svg="http://www.w3.org/2000/svg"
   xmlns="http://www.w3.org/2000/svg"
   xmlns:sodipodi="http://sodipodi.sourceforge.net/DTD/sodipodi-0.dtd"
   xmlns:inkscape="http://www.inkscape.org/namespaces/inkscape"
   version="1.1"
   width="300"
   height="300"
   viewBox="0,0,300,300"
   id="svg230"
   sodipodi:docname="98_image.svg"
   inkscape:export-filename="/media/piyush/mainFiles/gitClones/FlamCode/detection/test.png"
   inkscape:export-xdpi="96"
   inkscape:export-ydpi="96"
   inkscape:version="0.92.5 (2060ec1f9f, 2020-04-08)">
  <metadata
     id="metadata236">
    <rdf:RDF>
      <cc:Work
         rdf:about="">
        <dc:format>image/svg+xml</dc:format>
        <dc:type
           rdf:resource="http://purl.org/dc/dcmitype/StillImage" />
        <dc:title></dc:title>
      </cc:Work>
    </rdf:RDF>
  </metadata>
  <defs
     id="defs234" />
  <sodipodi:namedview
     pagecolor="#ffffff"
     bordercolor="#666666"
     borderopacity="1"
     objecttolerance="10"
     gridtolerance="10"
     guidetolerance="10"
     inkscape:pageopacity="1"
     inkscape:pageshadow="2"
     inkscape:window-width="1920"
     inkscape:window-height="1015"
     id="namedview232"
     showgrid="false"
     inkscape:pagecheckerboard="true"
     inkscape:zoom="2.2250293"
     inkscape:cx="73.747685"
     inkscape:cy="134.04911"
     inkscape:window-x="0"
     inkscape:window-y="0"
     inkscape:window-maximized="1"
     inkscape:current-layer="svg230" />
  <g
     fill="none"
     fill-rule="nonzero"
     stroke="none"
     stroke-width="none"
     stroke-linecap="none"
     stroke-linejoin="miter"
     stroke-miterlimit="10"
     stroke-dasharray=""
     stroke-dashoffset="0"
     font-family="none"
     font-weight="none"
     font-size="none"
     text-anchor="none"
     style="mix-blend-mode: normal"
     id="g228">
    <path
       d="M85.62284,53.63275c0,-4.41828 3.58172,-8 8,-8c4.41828,0 8,3.58172 8,8c0,4.41828 -3.58172,8 -8,8c-4.41828,0 -8,-3.58172 -8,-8z"
       fill="#000000"
       stroke="none"
       stroke-width="1"
       stroke-linecap="butt"
       id="path214" />
    <path
       d="M73.62284,53.63275c0,-11.04569 8.95431,-20 20,-20c11.04569,0 20,8.95431 20,20c0,11.04569 -8.95431,20 -20,20c-11.04569,0 -20,-8.95431 -20,-20z"
       fill="none"
       stroke="#000000"
       stroke-width="2"
       stroke-linecap="butt"
       id="path216" />
    <path
       d="M138.60233,211.18938c0,-4.41828 3.58172,-8 8,-8c4.41828,0 8,3.58172 8,8c0,4.41828 -3.58172,8 -8,8c-4.41828,0 -8,-3.58172 -8,-8z"
       fill="#000000"
       stroke="none"
       stroke-width="1"
       stroke-linecap="butt"
       id="path218" />
    <path
       d="M126.60233,211.18938c0,-11.04569 8.95431,-20 20,-20c11.04569,0 20,8.95431 20,20c0,11.04569 -8.95431,20 -20,20c-11.04569,0 -20,-8.95431 -20,-20z"
       fill="none"
       stroke="#000000"
       stroke-width="2"
       stroke-linecap="butt"
       id="path220" />
    <path
       d="M105.50416,88.96683l4.86947,14.48141"
       fill="none"
       stroke="#000000"
       stroke-width="3"
       stroke-linecap="round"
       id="path222" />
    <path
       d="M124.98206,146.89247l4.86947,14.48141"
       fill="none"
       stroke="#000000"
       stroke-width="3"
       stroke-linecap="round"
       id="path224" />
    <path
       d="M129.85153,161.37389l4.86947,14.48141"
       fill="none"
       stroke="#000000"
       stroke-width="3"
       stroke-linecap="round"
       id="path226" />
  </g>
  <path
     style="fill:none;stroke:#000000;stroke-width:1px;stroke-linecap:butt;stroke-linejoin:miter;stroke-opacity:1"
     d="m 193.22034,61.016949 c -6.65135,5.196155 -4.99014,6.119408 -7.62712,12.711865 -0.35189,0.879719 -1.15366,1.602203 -1.27119,2.542372 -0.31534,2.522741 0.61662,5.160655 0,7.627119 -1.38362,1.383624 -3.45212,2.916147 -3.81356,5.084746 -0.27864,1.671854 0.3324,3.422744 0,5.084746 -0.11752,0.587606 -1.00319,0.735207 -1.27118,1.271186 -0.1895,0.378995 0.13399,0.869202 0,1.271186 -0.29962,0.898865 -0.97157,1.643509 -1.27119,2.542373 -0.13399,0.401985 0.23504,0.918628 0,1.271188 -0.6648,0.9972 -1.87757,1.54517 -2.54237,2.54237 -0.23504,0.35257 0,0.84746 0,1.27119 0,1.72876 -0.68458,4.10686 1.27119,5.08474 0.58535,0.29268 6.30961,0 7.62711,0 1.69492,0 3.38983,0 5.08475,0 1.69491,0 3.38983,0 5.08475,0 2.11864,0 4.25858,0.29963 6.35593,0 0.93796,-0.13399 1.61328,-1.08537 2.54237,-1.27118 1.2465,-0.2493 2.54237,0 3.81356,0 0.42373,0 0.8692,0.13399 1.27119,0 0.89886,-0.29962 1.62317,-1.04139 2.54237,-1.27119 0.82215,-0.20554 1.69491,0 2.54237,0 2.54237,0 5.08475,0 7.62712,0 0.42373,0 0.85569,0.0831 1.27119,0 3.22862,1.08516 5.02723,-1.8924 7.62712,-2.54237 2.07888,-0.51972 2.69459,0.96674 3.81356,-1.27119 0.27145,-0.5429 0,-5.853414 0,-6.355931 0,-1.271186 0,-2.542372 0,-3.813559 0,-0.847457 0.20553,-1.720218 0,-2.542373 -0.2298,-0.919197 -0.74562,-1.754016 -1.27119,-2.542373 -0.3324,-0.4986 -1.12585,-0.689835 -1.27119,-1.271186 -0.9972,-1.596173 0.3324,-3.422745 0,-5.084746 -0.34263,-1.713151 -0.92855,-3.371594 -1.27118,-5.084746 -0.26407,-1.320308 0,-5.648794 0,-6.355932 0,-4.237288 0,-8.474576 0,-12.711864 0,-1.694915 0,-3.389831 0,-5.084746 0,-0.847458 -0.26799,-1.738404 0,-2.542373 0.29962,-0.898864 0.60121,-1.872399 1.27118,-2.542373 0.29962,-0.299621 0.84746,0 1.27119,0 0.42373,0 0.89219,-0.189497 1.27119,0 0.53597,0.26799 0.84745,0.847458 1.27118,1.271187 0.84746,0.847457 1.69492,1.694915 2.54237,2.542373 0.84746,0.847457 1.92576,1.514679 2.54238,2.542373 0.68939,1.148996 0.77354,2.569448 1.27118,3.813559 0.35189,0.879719 0.9193,1.662654 1.27119,2.542373 0.49764,1.24411 0.67194,2.615073 1.27119,3.813559 1.45049,2.900988 2.86223,3.501945 3.81356,6.355932 1.0954,3.286218 2.12502,11.061614 2.54237,13.983051 0.0599,0.41947 -0.134,0.869202 0,1.271187 0.72158,2.164752 1.82079,4.191179 2.54237,6.355932 0.134,0.401984 -0.10277,0.860109 0,1.271186 0.32499,1.299941 1.10499,2.483959 1.27119,3.813559 0,13.834371 -0.66998,0.463689 1.27118,10.169491 0.1662,0.831 -0.26799,1.73841 0,2.54237 0.1895,0.5685 0.96288,0.75734 1.27119,1.27119 0.97496,1.62493 1.8386,3.32531 2.54237,5.08475 0.15737,0.39342 0,0.84745 0,1.27118 0,1.69492 0,3.38983 0,5.08475 0,2.11864 0,4.23729 0,6.35593 0,2.54237 0,5.08475 0,7.62712 0,1.69491 0.3324,3.42274 0,5.08474 -0.26278,1.31393 -1.0084,2.49964 -1.27118,3.81356 -0.47465,2.37322 0.48029,6.49684 0,8.89831 -0.11752,0.58761 -1.15367,0.68358 -1.27119,1.27119 -0.9887,4.9435 0.74153,4.44915 0,8.8983 -0.22029,1.32172 -1.0084,2.49963 -1.27119,3.81356 -0.1662,0.831 0.26799,1.7384 0,2.54237 -0.59924,1.79773 -2.08277,3.24636 -2.54237,5.08475 -0.21569,0.86276 0,9.8493 0,11.44068 0,2.11864 0,4.23728 0,6.35593 0,0.42373 -0.13399,0.8692 0,1.27119 0.29962,0.89886 0.84746,1.69491 1.27119,2.54237 0.42373,0.84746 0.74561,1.75401 1.27118,2.54237 0.3324,0.4986 0.84746,0.84746 1.27119,1.27119 1.27119,1.27118 2.54237,2.54237 3.81356,3.81356 0.42373,0.42373 0.91164,0.79179 1.27119,1.27118 0.91666,1.22222 1.32015,2.8969 2.54237,3.81356 0.67797,0.50848 1.83725,-0.47008 2.54237,0 0.78836,0.52557 0.74562,1.75402 1.27119,2.54238 1.27119,1.90678 2.54237,1.27118 3.81356,3.81355 0.37899,0.75799 -0.26799,1.73841 0,2.54238 0.1895,0.56849 1.0032,0.7352 1.27118,1.27118 0.172,0.34399 0,7.07956 0,7.62712 0,1.27119 0,2.54238 0,3.81356 0,1.27119 0.40199,2.60761 0,3.81356 -0.009,0.0284 -4.94657,7.40605 -5.08474,7.62712 -3.48914,5.58263 -2.97551,6.29315 -7.62712,10.16949 -5.46457,4.55381 -1.89399,0.947 -7.62712,3.81356 -6.32799,3.164 -5.1275,3.33074 -10.16949,6.35593 -0.81246,0.48748 -1.80251,0.6793 -2.54237,1.27119 -1.40379,1.12303 -2.37538,2.73492 -3.81356,3.81356 -0.36746,0.27559 -5.66303,-0.34645 -6.35593,0 -0.53598,0.26799 -0.7027,1.08169 -1.27119,1.27119 -0.80397,0.26799 -1.69492,0 -2.54237,0 -2.11865,0 -4.23729,0 -6.35594,0 -0.84745,0 -1.71137,-0.1662 -2.54237,0 -1.71315,0.34263 -3.35116,1.05448 -5.08474,1.27118 -1.68183,0.21023 -3.47681,-0.53598 -5.08475,0 -1.13698,0.379 -1.54517,1.87757 -2.54237,2.54237 -0.35257,0.23505 -0.84746,0 -1.27119,0 -1.27119,0 -2.54237,0 -3.81356,0 -1.69491,0 -3.38983,0 -5.08474,0 -0.84746,0 -1.70645,-0.13932 -2.54238,0 -8.29062,1.38177 -2.32078,1.74306 -12.71186,2.54238 -2.95737,0.22749 -5.93221,0 -8.89831,0 -4.23729,0 -8.47457,0 -12.71186,0 -3.38983,0 -6.84549,0.6648 -10.16949,0 -3.16436,-0.63287 -5.75393,-3.08794 -8.89831,-3.81356 -2.47726,-0.57168 -5.09518,0.23017 -7.62712,0 -5.31104,-0.48282 -10.07441,-2.7776 -15.25423,-3.81356 -2.37974,-0.47595 -4.23252,0.85223 -6.35594,-1.27119 -0.66997,-0.66997 -0.74561,-1.75401 -1.27118,-2.54237 -0.9972,-1.4958 -2.73492,-2.37538 -3.81356,-3.81356 -0.56849,-0.75799 -0.84746,-1.69491 -1.27119,-2.54237 -0.42373,-0.84746 -0.97156,-1.64351 -1.27118,-2.54238 -1.06991,-3.20972 2.58188,1.32387 -1.27119,-3.81355 -1.899464,-2.53262 -3.044321,-2.00779 -3.813561,-5.08475 -0.205538,-0.82216 0.139322,-1.70645 0,-2.54237 -0.287217,-1.72331 -0.928556,-3.3716 -1.271186,-5.08475 -0.783933,-3.91966 3.335007,2.85646 -1.271186,-6.35593 -0.947487,-1.89497 -2.866073,-3.18977 -3.81356,-5.08475 -3.821183,-7.64236 0.359882,-2.37403 -1.271186,-8.8983 -0.145338,-0.58135 -1.153665,-0.68358 -1.271187,-1.27119 -0.3324,-1.662 0.239698,-3.40686 0,-5.08474 -0.189497,-1.32649 -1.008401,-2.49964 -1.271186,-3.81356 -0.1662,-0.831 0,-1.69492 0,-2.54238 0,-1.69491 0.367679,-3.43019 0,-5.08474 -0.04233,-0.19047 -3.581094,-8.54224 -3.813559,-10.16949 -0.539319,-3.77524 0.421137,-7.65045 0,-11.44068 -0.192933,-1.73639 -0.892192,-3.37927 -1.271187,-5.08475 -0.4687,-2.10915 -0.965631,-4.21704 -1.271186,-6.35593 -0.119849,-0.83894 0.314738,-1.75553 0,-2.54237 -0.567402,-1.41851 -1.974971,-2.39506 -2.542373,-3.81356 -0.314738,-0.78685 0.26799,-1.73841 0,-2.54237 -0.189497,-0.5685 -1.003197,-0.73521 -1.271187,-1.27119 -0.189497,-0.379 0.133995,-0.8692 0,-1.27119 -0.698058,-2.09417 -3.319306,-5.17897 -5.084745,-6.35593 -0.352564,-0.23504 -0.847458,0 -1.271187,0 -0.423729,0 -0.847457,0 -1.271186,0 -2.966102,0 -5.932204,0 -8.898305,0 -0.423729,0 -0.918623,-0.23504 -1.271187,0 -0.9972,0.6648 -1.470414,2.00639 -2.542373,2.54237 -0.757989,0.379 -1.784383,-0.37899 -2.542372,0 -1.607938,0.80397 -2.542373,2.54238 -3.81356,3.81356 -0.847457,0.84746 -1.545172,1.87757 -2.542373,2.54238 -3.185494,2.12366 0.888218,-3.30294 -2.542373,1.27118 -0.847457,1.27119 -1.694915,2.54237 -2.542372,3.81356 0,0.42373 0.157368,0.87776 0,1.27119 -0.703776,1.75944 -1.602204,3.43945 -2.542373,5.08474 -0.757989,1.32648 -2.005935,2.38306 -2.542373,3.81356 -1.326669,3.53778 -0.979354,7.92389 -2.542373,11.44068 -1.003464,2.25779 -2.70861,4.14603 -3.813559,6.35593 -0.599243,1.19849 -0.847458,2.54238 -1.271187,3.81356 -0.423729,1.27119 -0.946201,2.51362 -1.271186,3.81356 -0.10277,0.41108 0,0.84746 0,1.27119 -0.423729,1.69491 -0.622338,3.46262 -1.271187,5.08474 -0.222553,0.55639 -1.003197,0.73521 -1.271186,1.27119 -0.231658,0.46332 0,5.62348 0,6.35593 0,4.23729 0,8.47458 0,12.71187"
     id="path238"
     inkscape:connector-curvature="0" />
  <path
     style="fill:none;stroke:#000000;stroke-width:1px;stroke-linecap:butt;stroke-linejoin:miter;stroke-opacity:1"
     d="m 52.118644,275.84746 c -0.423729,1.69491 -0.179795,3.7205 -1.271186,5.08474 -0.837059,1.04633 -2.542373,0.84746 -3.81356,1.27119 -1.271186,0.42373 -2.513618,0.9462 -3.813559,1.27119 -2.096091,0.52402 -4.306206,0.58794 -6.355932,1.27118 -3.061423,1.02048 -5.813985,2.86454 -8.898305,3.81356 -6.810484,2.09554 -14.578045,1.27119 -21.6101698,1.27119 -2.1186441,0 -4.2372881,0 -6.3559322,0 -0.42372881,0 -0.89219187,0.1895 -1.2711864,0 -0.5359793,-0.26799 -1.0031968,-0.73521 -1.2711865,-1.27119 -0.1894973,-0.37899 0,-0.84746 0,-1.27118 0,-1.27119 0,-2.54238 0,-3.81356 0,-2.54238 0,-5.08475 0,-7.62712"
     id="path240"
     inkscape:connector-curvature="0" />
  <path
     style="fill:none;stroke:#000000;stroke-width:1px;stroke-linecap:butt;stroke-linejoin:miter;stroke-opacity:1"
     d="m 36.864407,125.84746 c 0,17.37288 0,34.74576 0,52.11864 0,1.27119 0,2.54237 0,3.81356 0,1.27119 -0.179773,2.55515 0,3.81356 0.247074,1.72952 1.024112,3.35523 1.271186,5.08475 0.179773,1.25841 -0.401984,2.6076 0,3.81356 4.310118,12.93035 1.258553,-6.43174 3.81356,8.8983 0.139321,0.83593 0,1.69492 0,2.54237 0,1.69492 0,3.38983 0,5.08475 0,0.42373 -0.157369,0.87776 0,1.27119 0.703775,1.75943 1.694915,3.38983 2.542372,5.08474"
     id="path242"
     inkscape:connector-curvature="0" />
  <path
     style="fill:none;stroke:#000000;stroke-width:1px;stroke-linecap:butt;stroke-linejoin:miter;stroke-opacity:1"
     d="m 193.22034,61.016949 c -1.69492,-1.271186 -6.35593,-2.118644 -5.08475,-3.813559 1.27119,-1.694916 3.96187,2.016952 5.08475,3.813559 1.14512,1.832186 0.46876,4.349864 1.27119,6.355932 0.91761,2.294027 2.54237,4.237288 3.81355,6.355933 1.27119,2.118644 2.249,4.443683 3.81356,6.355932 2.27678,2.782731 5.38106,4.819537 7.62712,7.627118 1.18378,1.479726 1.45568,3.532324 2.54238,5.084746 1.89783,2.711189 4.31129,5.024855 6.35593,7.62712 2.61789,3.33186 5.19719,6.69817 7.62712,10.16949 4.44915,6.35593 -3.81356,-2.54237 3.81356,7.62712 1.43818,1.91758 3.55024,3.24334 5.08474,5.08474 0.60657,0.72788 0.74562,1.75402 1.27119,2.54238 1.17521,1.76282 2.86607,3.18977 3.81356,5.08474 0.37899,0.75799 -0.26799,1.73841 0,2.54238 1.40518,4.21554 1.64678,4.18915 3.81356,6.35593"
     id="path244"
     inkscape:connector-curvature="0" />
  <path
     style="fill:none;stroke:#000000;stroke-width:1px;stroke-linecap:butt;stroke-linejoin:miter;stroke-opacity:1"
     d="m 160.16949,59.745763 c -0.84746,2.118644 -1.82079,4.191179 -2.54237,6.355932 -0.134,0.401984 0.1895,0.892192 0,1.271186 -1.36649,2.732969 -3.94994,4.79011 -5.08475,7.627119 -0.31473,0.786845 0.1662,1.711372 0,2.542373 -0.26278,1.313927 -1.0509,2.491842 -1.27118,3.813559 -0.20899,1.253891 0.2493,2.567059 0,3.81356 -0.18582,0.929086 -0.97157,1.643508 -1.27119,2.542372 -0.55247,1.657425 -0.62234,3.462624 -1.27119,5.084746 -0.22255,0.556383 -0.84745,0.847458 -1.27118,1.271187 -0.42373,1.694915 -0.92856,3.371594 -1.27119,5.084745 -0.0831,0.415501 0.134,0.869198 0,1.271188 -0.29962,0.89886 -0.84746,1.69491 -1.27119,2.54237 -0.42372,0.84746 -0.60121,1.8724 -1.27118,2.54237 -0.29962,0.29963 -0.84746,0 -1.27119,0"
     id="path246"
     inkscape:connector-curvature="0" />
  <path
     style="fill:none;stroke:#000000;stroke-width:1px;stroke-linecap:butt;stroke-linejoin:miter;stroke-opacity:1"
     d="m 25.423729,58.474576 c 1.195482,6.849438 3.706795,6.142405 6.355932,11.440678 0.189497,0.378995 -0.102769,0.860109 0,1.271187 0.324985,1.29994 0.946201,2.513618 1.271186,3.813559 0.10277,0.411077 0,0.847458 0,1.271186 0,2.118645 -0.582036,4.318806 0,6.355933 0.847458,2.966101 2.754238,1.694915 3.81356,3.813559 2.067237,4.134474 0.320915,3.023745 2.542373,6.355932 0.977835,1.466754 2.835723,2.346806 3.813559,3.813559 0.525571,0.788357 0.745616,1.754017 1.271186,2.542373 2.094827,3.142238 3.871571,5.142758 6.355933,7.627118"
     id="path248"
     inkscape:connector-curvature="0" />
  <path
     style="fill:none;stroke:#000000;stroke-width:1px;stroke-linecap:butt;stroke-linejoin:miter;stroke-opacity:1"
     d="m 146.18644,34.322034 c 2.11864,-0.847458 4.19118,-1.820789 6.35593,-2.542373 0.40199,-0.133995 0.84746,0 1.27119,0 1.27119,0 2.54237,0 3.81356,0 5.50847,0 11.01695,0 16.52542,0 17.79661,0 35.59322,0 53.38983,0"
     id="path250"
     inkscape:connector-curvature="0"
     inkscape:export-filename="/media/piyush/mainFiles/gitClones/FlamCode/detection/test.png"
     inkscape:export-xdpi="96"
     inkscape:export-ydpi="96" />
  <path
     style="fill:none;stroke:#000000;stroke-width:1px;stroke-linecap:butt;stroke-linejoin:miter;stroke-opacity:1"
     d="M 558.05085,94.067797 509.74576,76.271186"
     id="path252"
     inkscape:connector-curvature="0" />
  <path
     style="fill:none;stroke:#000000;stroke-width:1px;stroke-linecap:butt;stroke-linejoin:miter;stroke-opacity:1"
     d="m 93.032481,40.677576 c -0.599243,0.149811 -1.268068,0.131636 -1.797729,0.449433 -0.287249,0.172349 -0.212561,0.661993 -0.449432,0.898864 -0.105932,0.105932 -0.315438,-0.067 -0.449432,0 -0.378995,0.189498 -0.546301,0.663822 -0.898865,0.898865 -0.557452,0.371635 -1.198486,0.599243 -1.797729,0.898864"
     id="path254"
     inkscape:connector-curvature="0" />
  <path
     style="fill:none;stroke:#000000;stroke-width:1px;stroke-linecap:butt;stroke-linejoin:miter;stroke-opacity:1"
     d="m 124.94217,126.06971 c 0,2.54678 0,5.09356 0,7.64035"
     id="path256"
     inkscape:connector-curvature="0" />
  <path
     style="fill:none;stroke:#000000;stroke-width:1px;stroke-linecap:butt;stroke-linejoin:miter;stroke-opacity:1"
     d="m 111.00977,140.90097 c 3.41608,3.41608 0.27634,0.81232 3.14603,2.24717 0.1895,0.0947 0.29962,0.29962 0.44943,0.44943"
     id="path258"
     inkscape:connector-curvature="0" />
  <path
     style="fill:none;stroke:#000000;stroke-width:1px;stroke-linecap:butt;stroke-linejoin:miter;stroke-opacity:1"
     d="m 137.52628,152.13678 3.59545,14.38183"
     id="path260"
     inkscape:connector-curvature="0" />
  <path
     style="fill:none;stroke:#000000;stroke-width:1px;stroke-linecap:butt;stroke-linejoin:miter;stroke-opacity:1"
     d="m 138.87457,181.34988 c -0.74905,0.44943 -1.4981,0.89886 -2.24716,1.3483 -0.29962,0 -0.63087,-0.134 -0.89886,0 -0.379,0.18949 -0.59925,0.59924 -0.89887,0.89886"
     id="path262"
     inkscape:connector-curvature="0" />
  <path
     style="fill:none;stroke:#000000;stroke-width:1px;stroke-linecap:butt;stroke-linejoin:miter;stroke-opacity:1"
     d="m 119.99842,117.97993 c -1.98723,0.99361 -1.32399,0.42512 -2.24716,1.34829"
     id="path264"
     inkscape:connector-curvature="0" />
  <path
     style="fill:none;stroke:#000000;stroke-width:1px;stroke-linecap:butt;stroke-linejoin:miter;stroke-opacity:1"
     d="m 106.51545,73.0367 c -7.775951,3.110381 1.79003,-0.895015 -3.59546,1.797729 -0.42373,0.211865 -0.97836,0.153488 -1.3483,0.449433 -0.42178,0.337429 -0.45932,1.034341 -0.89886,1.348297 -0.65648,0.468917 -1.525577,0.538072 -2.247161,0.898864 -0.966251,0.483125 -1.780501,1.225171 -2.696594,1.797729 -0.74076,0.462975 -1.54833,0.824173 -2.247161,1.348297 -0.508475,0.381356 -0.803281,1.021287 -1.348297,1.348297 -0.256924,0.154154 -0.630875,-0.133995 -0.898865,0 -0.322157,0.161078 -1.417217,1.417217 -1.797729,1.797729"
     id="path266"
     inkscape:connector-curvature="0" />
  <path
     style="fill:#f9f9f9;stroke:#000000;stroke-width:1px;stroke-linecap:butt;stroke-linejoin:miter;stroke-opacity:1"
     d="m 129.4365,92.362288 46.74095,44.493792"
     id="path268"
     inkscape:connector-curvature="0" />
  <path
     style="fill:none;stroke:#ffffff;stroke-width:1px;stroke-linecap:butt;stroke-linejoin:miter;stroke-opacity:1;opacity:0.01"
     d="m 137.52628,152.13678 c -1.04868,0.14981 -2.15415,0.0775 -3.14603,0.44943 -0.31366,0.11763 -0.24844,0.63088 -0.44943,0.89887 -0.25424,0.33898 -0.63416,0.56799 -0.89887,0.89886 -0.33743,0.42179 -0.51692,0.96636 -0.89886,1.3483 -0.38194,0.38194 -0.96635,0.51692 -1.3483,0.89886 -1.18492,1.18493 -0.93939,2.09337 -1.79773,3.59546 -0.20458,0.6406 -1.02128,0.80328 -1.34829,1.3483 -1.10726,1.84542 -0.55398,1.59133 -1.79773,3.14602 -0.2647,0.33088 -0.62311,0.57715 -0.89887,0.89887 -0.62427,0.72832 -1.18362,1.51024 -1.79773,2.24716 -0.13563,0.16276 -0.32231,0.27994 -0.44943,0.44943 -0.32409,0.43212 -0.57477,0.91618 -0.89886,1.3483 -0.12712,0.16949 -0.34043,0.26776 -0.44944,0.44943 -0.34469,0.5745 -0.55416,1.22323 -0.89886,1.79773 -0.20101,0.33501 -1.04106,1.04106 -1.3483,1.3483"
     id="path272"
     inkscape:connector-curvature="0" />
  <path
     style="fill:none;stroke:#ffffff;stroke-width:1px;stroke-linecap:butt;stroke-linejoin:miter;stroke-opacity:1"
     d="m 147.41379,140.45154 c -0.76077,1.01436 -1.29481,1.90297 -2.24716,2.6966 -0.57544,0.47953 -1.22229,0.86876 -1.79773,1.34829 -0.32552,0.27127 -0.55989,0.64463 -0.89887,0.89887 -0.26799,0.20099 -0.66199,0.21256 -0.89886,0.44943 -0.38195,0.38194 -0.55307,0.93334 -0.89887,1.3483 -0.40689,0.48827 -0.9414,0.86002 -1.34829,1.34829 -0.3458,0.41496 -0.51692,0.96636 -0.89887,1.3483 -0.38194,0.38194 -0.90876,0.58491 -1.3483,0.89886 -1.86962,1.33545 -1.41915,0.96973 -2.69659,2.24717 -0.44943,0.44943 -0.96694,0.83982 -1.3483,1.34829 -0.52412,0.69883 -0.7798,1.58392 -1.34829,2.24716 -0.35153,0.41012 -1.06202,0.44082 -1.3483,0.89887 -0.50217,0.80347 -0.51405,1.83077 -0.89886,2.69659 -0.21938,0.4936 -0.63655,0.87612 -0.89887,1.3483 -0.48805,0.87849 -0.81567,1.84439 -1.3483,2.69659 -0.22457,0.35932 -0.68085,0.53552 -0.89886,0.89887 -0.24374,0.40623 -0.29962,0.89886 -0.44943,1.34829 -0.14981,0.44944 -0.35653,0.88376 -0.44943,1.3483 -0.0588,0.2938 0.11127,0.62067 0,0.89887 -0.20061,0.50151 -0.69826,0.84678 -0.89887,1.34829 -0.16691,0.41729 0,0.89887 0,1.3483"
     id="path4785"
     inkscape:connector-curvature="0" />
  <path
     style="fill:none;stroke:#ffffff;stroke-width:1px;stroke-linecap:butt;stroke-linejoin:miter;stroke-opacity:1"
     d="m 115.95353,90.564559 c -1.89741,2.276885 -2.12371,2.913911 -4.49433,4.494323 -0.55745,0.371635 -1.24027,0.52723 -1.79772,0.898864 -0.79815,0.5321 -1.44902,1.26563 -2.24717,1.79773 -0.55745,0.371634 -1.24886,0.514659 -1.79773,0.898864 -0.95855,0.670985 -1.76054,1.54513 -2.69659,2.24716 -0.26799,0.20099 -0.60801,0.28323 -0.89886,0.44943 -0.75845,0.4334 -1.52034,0.86375 -2.247165,1.3483 -1.281116,0.85408 -2.535037,2.19331 -4.04489,2.69659 -0.142123,0.0474 -0.299622,0 -0.449432,0"
     id="path4787"
     inkscape:connector-curvature="0" />
  <path
     style="fill:none;stroke:#000000;stroke-width:1px;stroke-linecap:butt;stroke-linejoin:miter;stroke-opacity:1"
     d="m 106.06602,25.846311 c -1.42572,2.292971 -3.1048,4.425609 -4.49433,6.741484 -0.96577,1.609621 -1.636608,3.394552 -2.696589,4.943756 -0.899265,1.31431 -2.151193,2.351916 -3.146026,3.595458 -0.805058,1.006322 -1.473929,2.115049 -2.247161,3.146026 -0.575555,0.767405 -1.198487,1.498107 -1.79773,2.247161 -0.599243,0.749054 -1.198486,1.498108 -1.797729,2.247161 -0.599243,0.749054 -1.265629,1.449012 -1.797729,2.247162 -0.669974,1.004961 -1.087328,2.169224 -1.797729,3.146026 -0.49845,0.685369 -1.23081,1.167819 -1.797729,1.797729 -0.782729,0.869698 -1.498108,1.797729 -2.247161,2.696594 -1.048676,1.198486 -2.074788,2.417096 -3.146026,3.595458 -0.427547,0.470301 -0.929756,0.869964 -1.348297,1.348297 -5.623559,6.426924 3.915075,-3.681087 -5.393187,6.292051 -7.40543,7.934389 2.069712,-2.099287 -5.84262,4.494323 -0.898865,0.749054 -1.506236,1.791018 -2.247161,2.696594 -1.935316,2.365385 -1.393768,1.439238 -2.247162,3.146026"
     id="path4789"
     inkscape:connector-curvature="0" />
  <path
     style="fill:none;stroke:#000000;stroke-width:1px;stroke-linecap:butt;stroke-linejoin:miter;stroke-opacity:1"
     d="m 168.5371,188.09136 c -4.37729,7.29549 1.23537,-1.64716 -2.69659,3.59546 -0.52412,0.69883 -0.85107,1.52895 -1.3483,2.24716 -0.85273,1.23174 -1.93702,2.30419 -2.69659,3.59546 -0.74809,1.27175 -0.94685,2.83948 -1.79773,4.04489 -0.97743,1.38469 -2.5037,2.299 -3.59546,3.59546 -1.31252,1.55862 -2.38673,3.30334 -3.59546,4.94375 -0.88867,1.20606 -1.80791,2.3894 -2.69659,3.59546 -1.20873,1.64042 -2.27578,3.39119 -3.59546,4.94376 -1.23492,1.45285 -2.8242,2.58006 -4.04489,4.04489 -1.03739,1.24486 -1.71225,2.75767 -2.69659,4.04489 -4.70834,6.15706 -1.34085,1.34085 -5.84262,5.84262 -2.24183,2.24182 -3.10066,3.77874 -4.94376,6.29205 -0.88592,1.20808 -1.68045,2.49464 -2.69659,3.59546 -0.79363,0.85976 -1.86924,1.4198 -2.69659,2.24716 -0.82736,0.82736 -1.3483,1.94754 -2.24717,2.69659 -0.92786,0.77323 -2.12704,1.14929 -3.14602,1.79773 -1.81857,1.15727 -2.43709,1.98766 -4.04489,3.59546"
     id="path4791"
     inkscape:connector-curvature="0"
     inkscape:export-filename="/media/piyush/mainFiles/gitClones/FlamCode/detection/path4791.png"
     inkscape:export-xdpi="96"
     inkscape:export-ydpi="96" />
  <path
     style="fill:none;stroke:#000000;stroke-width:1px;stroke-linecap:butt;stroke-linejoin:miter;stroke-opacity:1"
     d="m 70.111435,47.419061 c 4.414349,1.103587 -1.111834,-0.123538 4.044891,0.449432 1.958401,0.2176 3.876254,0.772002 5.842619,0.898864 2.690999,0.173613 5.393188,0 8.089781,0 4.044891,0 8.089781,0 12.134674,0 3.29583,0 6.59167,0 9.88751,0 1.34829,0 2.70842,0.178196 4.04489,0 0.93917,-0.125223 1.7811,-0.654732 2.69659,-0.898864 1.33455,-0.35588 2.72355,-0.496716 4.04489,-0.898865 2.13061,-0.648445 4.10503,-1.82658 6.29205,-2.247161 1.76539,-0.339497 3.65465,0.45751 5.39319,0 3.76763,-2.691162 1.88233,-1.994422 5.39319,-2.696594"
     id="path4793"
     inkscape:connector-curvature="0" />
  <path
     style="fill:none;stroke:#000000;stroke-width:1px;stroke-linecap:butt;stroke-linejoin:miter;stroke-opacity:1"
     d="m 109.21204,240.22551 c 1.07039,-1.78399 2.51141,-4.21654 3.59546,-5.84262 0.71486,-1.07228 1.55528,-2.05878 2.24716,-3.14603 0.61687,-0.96936 0.94934,-2.29763 1.79773,-3.14602 0.52966,-0.52967 1.26807,-0.81864 1.79773,-1.3483 0.23687,-0.23687 0.25473,-0.62628 0.44943,-0.89887 0.55756,-0.78058 1.28933,-1.43371 1.79773,-2.24716 1.71406,-2.7425 -1.45984,0.11155 1.79773,-3.14602 0.97665,-0.97665 2.21273,-1.67845 3.14603,-2.6966 0.72998,-0.79634 1.07104,-1.89723 1.79773,-2.69659 0.33155,-0.3647 3.00641,-2.62679 4.04489,-3.14603 0.42373,-0.21186 0.98435,-0.14615 1.34829,-0.44943 1.11072,-0.92559 0.87446,-1.97262 2.24717,-2.24716 0.4407,-0.0881 0.90956,0.0975 1.34829,0 0.92493,-0.20554 1.80431,-0.58019 2.6966,-0.89886 1.20541,-0.43051 2.33808,-1.1088 3.59545,-1.3483 1.9188,-0.36549 3.90045,-0.24134 5.84262,-0.44943 2.25415,-0.24152 4.51234,-0.48606 6.74149,-0.89887 9.43907,-1.74797 1.36387,-1.34829 10.33694,-1.34829 1.3483,0 2.69659,0 4.04489,0 0.44943,0 0.91228,-0.10901 1.3483,0 0.20554,0.0514 0.29962,0.29962 0.44943,0.44943 0.29962,0.29962 0.50544,0.74149 0.89886,0.89886 0.41729,0.16692 0.93521,-0.17704 1.3483,0 0.68849,0.29507 1.14014,0.98961 1.79773,1.3483 1.00161,0.54633 2.14147,0.80738 3.14603,1.3483 0.95117,0.51217 1.71572,1.34502 2.69659,1.79772 0.99026,0.45705 2.09382,0.6119 3.14603,0.89887 0.59592,0.16252 1.24525,0.17319 1.79772,0.44943 0.379,0.1895 0.54631,0.66382 0.89887,0.89887 0.12465,0.0831 0.29962,0 0.44943,0 0.14981,0.14981 0.29962,0.29962 0.44943,0.44943"
     id="path4795"
     inkscape:connector-curvature="0" />
  <path
     style="fill:none;stroke:#000000;stroke-width:1px;stroke-linecap:butt;stroke-linejoin:miter;stroke-opacity:1"
     d="m 153.70584,8.3184525 c -0.59924,0 -1.22924,-0.1894973 -1.79773,0 -0.40198,0.1339948 -0.53097,0.6886362 -0.89887,0.8988646 -0.70046,0.4002629 -1.4818,0.643746 -2.24716,0.8988649 -1.9354,0.645135 -2.41053,0.306403 -4.49432,1.348296 -1.2641,0.632053 -2.31474,1.649493 -3.59546,2.247162 -0.98832,0.461215 -2.19908,0.357756 -3.14602,0.898864 -6.79552,3.883155 0.64288,1.773766 -6.74149,4.494323 -1.60279,0.590501 -3.3959,0.625964 -4.94375,1.348297 -0.76795,0.358378 -1.06572,1.37072 -1.79773,1.797729 -1.10562,0.644947 -2.46423,0.749408 -3.59546,1.348297 -2.95569,1.564779 -6.23591,4.587979 -8.98865,6.292052 -1.42413,0.88161 -3.10069,1.318074 -4.49432,2.247161 -1.32505,0.883366 -2.39201,2.103043 -3.59546,3.146026 -0.0148,0.01281 -6.291061,5.3922 -6.292048,5.393187 -0.976647,0.976647 -1.797729,2.097351 -2.696594,3.146026 -0.898864,1.048676 -1.854469,2.051264 -2.696594,3.146026 -0.658671,0.856273 -1.158878,1.825434 -1.797729,2.696594 -1.010111,1.377425 -2.145946,2.660165 -3.146026,4.04489 -5.598676,7.752015 0.571557,0.200553 -6.741484,9.438078 -1.452518,1.834761 -3.090251,3.521092 -4.494323,5.393188 -0.847987,1.130649 -1.449086,2.429041 -2.247161,3.595458 -1.150626,1.681684 -2.431831,3.27104 -3.595458,4.943755 -1.233843,1.773649 -2.274364,3.683536 -3.595458,5.393187 -7.337577,9.495687 -0.946578,-0.822523 -7.640349,9.88751 -0.566468,0.906349 -3.705362,6.117378 -4.494323,8.089782 -1.116172,0.74417 -0.161265,1.83209 -0.449432,2.69659 -0.067,0.201 -0.324997,0.27796 -0.449432,0.44944 -0.755688,1.04133 -1.457034,2.12104 -2.185551,3.18156"
     id="path4797"
     inkscape:connector-curvature="0"
     inkscape:export-filename="/media/piyush/mainFiles/gitClones/FlamCode/detection/path4797.png"
     inkscape:export-xdpi="96"
     inkscape:export-ydpi="96" />
</svg>
