<svg version="1.1" xmlns="http://www.w3.org/2000/svg" xmlns:xlink="http://www.w3.org/1999/xlink" width="300" height="300" viewBox="0,0,300,300"><g fill="none" fill-rule="nonzero" stroke="none" stroke-width="none" stroke-linecap="none" stroke-linejoin="miter" stroke-miterlimit="10" stroke-dasharray="" stroke-dashoffset="0" font-family="none" font-weight="none" font-size="none" text-anchor="none" style="mix-blend-mode: normal"><path d="M234.26655,73.81623c0,-4.41828 3.58172,-8 8,-8c4.41828,0 8,3.58172 8,8c0,4.41828 -3.58172,8 -8,8c-4.41828,0 -8,-3.58172 -8,-8z" fill="#000000" stroke="none" stroke-width="1" stroke-linecap="butt"></path><path d="M222.26655,73.81623c0,-11.04569 8.95431,-20 20,-20c11.04569,0 20,8.95431 20,20c0,11.04569 -8.95431,20 -20,20c-11.04569,0 -20,-8.95431 -20,-20z" fill="none" stroke="#000000" stroke-width="2" stroke-linecap="butt"></path><path d="M146.36004,52.85676c0,-4.41828 3.58172,-8 8,-8c4.41828,0 8,3.58172 8,8c0,4.41828 -3.58172,8 -8,8c-4.41828,0 -8,-3.58172 -8,-8z" fill="#000000" stroke="none" stroke-width="1" stroke-linecap="butt"></path><path d="M134.36004,52.85676c0,-11.04569 8.95431,-20 20,-20c11.04569,0 20,8.95431 20,20c0,11.04569 -8.95431,20 -20,20c-11.04569,0 -20,-8.95431 -20,-20z" fill="none" stroke="#000000" stroke-width="2" stroke-linecap="butt"></path><path d="M234.28839,175.17765c0,-4.41828 3.58172,-8 8,-8c4.41828,0 8,3.58172 8,8c0,4.41828 -3.58172,8 -8,8c-4.41828,0 -8,-3.58172 -8,-8z" fill="#000000" stroke="none" stroke-width="1" stroke-linecap="butt"></path><path d="M222.28839,175.17765c0,-11.04569 8.95431,-20 20,-20c11.04569,0 20,8.95431 20,20c0,11.04569 -8.95431,20 -20,20c-11.04569,0 -20,-8.95431 -20,-20z" fill="none" stroke="#000000" stroke-width="2" stroke-linecap="butt"></path><path d="M55.80608,76.98539c0,-4.41828 3.58172,-8 8,-8c4.41828,0 8,3.58172 8,8c0,4.41828 -3.58172,8 -8,8c-4.41828,0 -8,-3.58172 -8,-8z" fill="#000000" stroke="none" stroke-width="1" stroke-linecap="butt"></path><path d="M43.80608,76.98539c0,-11.04569 8.95431,-20 20,-20c11.04569,0 20,8.95431 20,20c0,11.04569 -8.95431,20 -20,20c-11.04569,0 -20,-8.95431 -20,-20z" fill="none" stroke="#000000" stroke-width="2" stroke-linecap="butt"></path><path d="M210.85084,66.32581l-4.17918,-0.99644" fill="none" stroke="#000000" stroke-width="3" stroke-linecap="round"></path><path d="M194.13411,62.34005l-4.17918,-0.99644" fill="none" stroke="#000000" stroke-width="3" stroke-linecap="round"></path><path d="M189.95493,61.34361l-4.17918,-0.99644" fill="none" stroke="#000000" stroke-width="3" stroke-linecap="round"></path><path d="M177.60838,85.19852l6.90528,9.60623" fill="none" stroke="#000000" stroke-width="3" stroke-linecap="round"></path><path d="M184.51366,94.80475l6.90528,9.60623" fill="none" stroke="#000000" stroke-width="3" stroke-linecap="round"></path><path d="M198.32421,114.0172l6.90528,9.60623" fill="none" stroke="#000000" stroke-width="3" stroke-linecap="round"></path><path d="M205.22949,123.62343l6.90528,9.60623" fill="none" stroke="#000000" stroke-width="3" stroke-linecap="round"></path><path d="M201.57874,152.78119l-16.17717,-8.89989" fill="none" stroke="#000000" stroke-width="3" stroke-linecap="round"></path><path d="M185.40157,143.8813l-16.17717,-8.89989" fill="none" stroke="#000000" stroke-width="3" stroke-linecap="round"></path><path d="M104.51573,99.38185l-16.17717,-8.89989" fill="none" stroke="#000000" stroke-width="3" stroke-linecap="round"></path></g></svg>