<svg version="1.1" xmlns="http://www.w3.org/2000/svg" xmlns:xlink="http://www.w3.org/1999/xlink" width="300" height="300" viewBox="0,0,300,300"><g fill="none" fill-rule="nonzero" stroke="none" stroke-width="none" stroke-linecap="none" stroke-linejoin="miter" stroke-miterlimit="10" stroke-dasharray="" stroke-dashoffset="0" font-family="none" font-weight="none" font-size="none" text-anchor="none" style="mix-blend-mode: normal"><path d="M109.84078,87.61487c0,-4.41828 3.58172,-8 8,-8c4.41828,0 8,3.58172 8,8c0,4.41828 -3.58172,8 -8,8c-4.41828,0 -8,-3.58172 -8,-8z" fill="#000000" stroke="none" stroke-width="1" stroke-linecap="butt"></path><path d="M97.84078,87.61487c0,-11.04569 8.95431,-20 20,-20c11.04569,0 20,8.95431 20,20c0,11.04569 -8.95431,20 -20,20c-11.04569,0 -20,-8.95431 -20,-20z" fill="none" stroke="#000000" stroke-width="2" stroke-linecap="butt"></path><path d="M163.07977,154.35592c0,-4.41828 3.58172,-8 8,-8c4.41828,0 8,3.58172 8,8c0,4.41828 -3.58172,8 -8,8c-4.41828,0 -8,-3.58172 -8,-8z" fill="#000000" stroke="none" stroke-width="1" stroke-linecap="butt"></path><path d="M151.07977,154.35592c0,-11.04569 8.95431,-20 20,-20c11.04569,0 20,8.95431 20,20c0,11.04569 -8.95431,20 -20,20c-11.04569,0 -20,-8.95431 -20,-20z" fill="none" stroke="#000000" stroke-width="2" stroke-linecap="butt"></path><path d="M228.58135,227.95557c0,-4.41828 3.58172,-8 8,-8c4.41828,0 8,3.58172 8,8c0,4.41828 -3.58172,8 -8,8c-4.41828,0 -8,-3.58172 -8,-8z" fill="#000000" stroke="none" stroke-width="1" stroke-linecap="butt"></path><path d="M216.58135,227.95557c0,-11.04569 8.95431,-20 20,-20c11.04569,0 20,8.95431 20,20c0,11.04569 -8.95431,20 -20,20c-11.04569,0 -20,-8.95431 -20,-20z" fill="none" stroke="#000000" stroke-width="2" stroke-linecap="butt"></path><path d="M71.11725,159.93931c0,-4.41828 3.58172,-8 8,-8c4.41828,0 8,3.58172 8,8c0,4.41828 -3.58172,8 -8,8c-4.41828,0 -8,-3.58172 -8,-8z" fill="#000000" stroke="none" stroke-width="1" stroke-linecap="butt"></path><path d="M59.11725,159.93931c0,-11.04569 8.95431,-20 20,-20c11.04569,0 20,8.95431 20,20c0,11.04569 -8.95431,20 -20,20c-11.04569,0 -20,-8.95431 -20,-20z" fill="none" stroke="#000000" stroke-width="2" stroke-linecap="butt"></path><path d="M137.59117,112.37419l2.2897,2.8704" fill="none" stroke="#000000" stroke-width="3" stroke-linecap="round"></path><path d="M146.74998,123.8558l2.2897,2.8704" fill="none" stroke="#000000" stroke-width="3" stroke-linecap="round"></path><path d="M149.03969,126.7262l2.2897,2.8704" fill="none" stroke="#000000" stroke-width="3" stroke-linecap="round"></path><path d="M193.22859,179.24304l3.53399,3.9709" fill="none" stroke="#000000" stroke-width="3" stroke-linecap="round"></path><path d="M196.76258,183.21394l3.53399,3.9709" fill="none" stroke="#000000" stroke-width="3" stroke-linecap="round"></path><path d="M203.83056,191.15575l3.53399,3.9709" fill="none" stroke="#000000" stroke-width="3" stroke-linecap="round"></path><path d="M207.36455,195.12665l3.53399,3.9709" fill="none" stroke="#000000" stroke-width="3" stroke-linecap="round"></path><path d="M197.61994,211.12628l-13.25688,-5.72628" fill="none" stroke="#000000" stroke-width="3" stroke-linecap="round"></path><path d="M184.36306,205.4l-13.25688,-5.72628" fill="none" stroke="#000000" stroke-width="3" stroke-linecap="round"></path><path d="M118.07866,176.76861l-13.25688,-5.72628" fill="none" stroke="#000000" stroke-width="3" stroke-linecap="round"></path></g></svg>